<mxfile host="Electron" modified="2024-04-17T19:02:13.158Z" agent="Mozilla/5.0 (Windows NT 10.0; Win64; x64) AppleWebKit/537.36 (KHTML, like Gecko) draw.io/22.1.21 Chrome/120.0.6099.109 Electron/28.1.0 Safari/537.36" etag="g-SlNfWBTIhnQ_ljMsdP" version="22.1.21" type="device">
  <diagram name="Page-1" id="6f7wbPanEzozHGWUEkWh">
    <mxGraphModel dx="1500" dy="956" grid="1" gridSize="10" guides="1" tooltips="1" connect="1" arrows="1" fold="1" page="1" pageScale="1" pageWidth="2000" pageHeight="1125" math="0" shadow="0">
      <root>
        <mxCell id="0" />
        <mxCell id="1" parent="0" />
        <mxCell id="ctBUiZ3gcc4E49hoRwvt-1" value="&lt;font style=&quot;font-size: 20px;&quot;&gt;start&lt;/font&gt;" style="ellipse;whiteSpace=wrap;html=1;strokeWidth=1;fontSize=20;fontStyle=0;container=0;" parent="1" vertex="1">
          <mxGeometry x="544.1524577028666" y="35" width="156.29572878758862" height="65.12345679012346" as="geometry" />
        </mxCell>
        <mxCell id="ctBUiZ3gcc4E49hoRwvt-2" value="x_len, i, mean, sum, std = 0;&lt;br style=&quot;font-size: 20px;&quot;&gt;x = [];" style="whiteSpace=wrap;html=1;fontSize=20;strokeWidth=1;fontStyle=0;container=0;" parent="1" vertex="1">
          <mxGeometry x="479.02923737470473" y="204.320987654321" width="286.5421694439125" height="78.14814814814815" as="geometry" />
        </mxCell>
        <mxCell id="ctBUiZ3gcc4E49hoRwvt-3" value="" style="edgeStyle=orthogonalEdgeStyle;rounded=0;orthogonalLoop=1;jettySize=auto;html=1;fontStyle=0;strokeWidth=1;fontSize=20;" parent="1" source="ctBUiZ3gcc4E49hoRwvt-1" target="ctBUiZ3gcc4E49hoRwvt-2" edge="1">
          <mxGeometry relative="1" as="geometry" />
        </mxCell>
        <mxCell id="ctBUiZ3gcc4E49hoRwvt-5" value="" style="edgeStyle=orthogonalEdgeStyle;rounded=0;orthogonalLoop=1;jettySize=auto;html=1;fontStyle=0;strokeWidth=1;fontSize=20;" parent="1" source="ctBUiZ3gcc4E49hoRwvt-2" target="ctBUiZ3gcc4E49hoRwvt-4" edge="1">
          <mxGeometry relative="1" as="geometry" />
        </mxCell>
        <mxCell id="ctBUiZ3gcc4E49hoRwvt-8" value="x_len = len(x)" style="whiteSpace=wrap;html=1;fontSize=20;strokeWidth=1;fontStyle=0;container=0;" parent="1" vertex="1">
          <mxGeometry x="544.1524577028666" y="569.0123456790124" width="156.29572878758862" height="78.14814814814815" as="geometry" />
        </mxCell>
        <mxCell id="ctBUiZ3gcc4E49hoRwvt-9" value="" style="edgeStyle=orthogonalEdgeStyle;rounded=0;orthogonalLoop=1;jettySize=auto;html=1;fontSize=20;fontStyle=0" parent="1" source="ctBUiZ3gcc4E49hoRwvt-4" target="ctBUiZ3gcc4E49hoRwvt-8" edge="1">
          <mxGeometry relative="1" as="geometry" />
        </mxCell>
        <mxCell id="ctBUiZ3gcc4E49hoRwvt-14" value="i &amp;lt; x_len" style="rhombus;whiteSpace=wrap;html=1;fontSize=20;strokeWidth=1;fontStyle=0;container=0;" parent="1" vertex="1">
          <mxGeometry x="570.2017458341314" y="751.3580246913581" width="104.19715252505908" height="104.19753086419753" as="geometry" />
        </mxCell>
        <mxCell id="ctBUiZ3gcc4E49hoRwvt-15" value="" style="edgeStyle=orthogonalEdgeStyle;rounded=0;orthogonalLoop=1;jettySize=auto;html=1;fontSize=20;fontStyle=0" parent="1" source="ctBUiZ3gcc4E49hoRwvt-8" target="ctBUiZ3gcc4E49hoRwvt-14" edge="1">
          <mxGeometry relative="1" as="geometry" />
        </mxCell>
        <mxCell id="ctBUiZ3gcc4E49hoRwvt-16" value="mean = mean + x[i]" style="whiteSpace=wrap;html=1;fontSize=20;strokeWidth=1;fontStyle=0;container=0;" parent="1" vertex="1">
          <mxGeometry x="524.615491604418" y="959.7530864197531" width="195.36966098448576" height="78.14814814814815" as="geometry" />
        </mxCell>
        <mxCell id="ctBUiZ3gcc4E49hoRwvt-17" value="" style="edgeStyle=orthogonalEdgeStyle;rounded=0;orthogonalLoop=1;jettySize=auto;html=1;fontSize=20;fontStyle=0" parent="1" source="ctBUiZ3gcc4E49hoRwvt-14" target="ctBUiZ3gcc4E49hoRwvt-16" edge="1">
          <mxGeometry relative="1" as="geometry" />
        </mxCell>
        <mxCell id="ctBUiZ3gcc4E49hoRwvt-18" value="&lt;font style=&quot;font-size: 20px;&quot;&gt;true&lt;/font&gt;" style="edgeLabel;html=1;align=center;verticalAlign=middle;resizable=0;points=[];fontSize=20;container=0;fontStyle=0" parent="ctBUiZ3gcc4E49hoRwvt-17" vertex="1" connectable="0">
          <mxGeometry x="-0.1682" y="-2" relative="1" as="geometry">
            <mxPoint as="offset" />
          </mxGeometry>
        </mxCell>
        <mxCell id="ctBUiZ3gcc4E49hoRwvt-23" style="edgeStyle=orthogonalEdgeStyle;rounded=0;orthogonalLoop=1;jettySize=auto;html=1;fontSize=20;fontStyle=0" parent="1" source="ctBUiZ3gcc4E49hoRwvt-20" edge="1">
          <mxGeometry relative="1" as="geometry">
            <mxPoint x="622.3003220966609" y="699.2592592592592" as="targetPoint" />
            <Array as="points">
              <mxPoint x="895.817847474941" y="699.2592592592592" />
            </Array>
          </mxGeometry>
        </mxCell>
        <mxCell id="ctBUiZ3gcc4E49hoRwvt-20" value="i = i + 1" style="whiteSpace=wrap;html=1;fontSize=20;strokeWidth=1;fontStyle=0;container=0;" parent="1" vertex="1">
          <mxGeometry x="843.7192712124115" y="803.4567901234568" width="104.19715252505908" height="78.14814814814815" as="geometry" />
        </mxCell>
        <mxCell id="ctBUiZ3gcc4E49hoRwvt-21" value="" style="edgeStyle=orthogonalEdgeStyle;rounded=0;orthogonalLoop=1;jettySize=auto;html=1;fontSize=20;fontStyle=0" parent="1" source="ctBUiZ3gcc4E49hoRwvt-16" target="ctBUiZ3gcc4E49hoRwvt-20" edge="1">
          <mxGeometry relative="1" as="geometry" />
        </mxCell>
        <mxCell id="ctBUiZ3gcc4E49hoRwvt-26" value="mean = mean / x_len" style="whiteSpace=wrap;html=1;fontSize=20;strokeWidth=1;fontStyle=0;container=0;" parent="1" vertex="1">
          <mxGeometry x="1201.7537119325798" y="98.82098765432099" width="221.41894911575054" height="78.14814814814815" as="geometry" />
        </mxCell>
        <mxCell id="ctBUiZ3gcc4E49hoRwvt-29" style="edgeStyle=orthogonalEdgeStyle;rounded=0;orthogonalLoop=1;jettySize=auto;html=1;entryX=0.5;entryY=0;entryDx=0;entryDy=0;fontSize=20;fontStyle=0" parent="1" source="ctBUiZ3gcc4E49hoRwvt-14" target="ctBUiZ3gcc4E49hoRwvt-26" edge="1">
          <mxGeometry relative="1" as="geometry">
            <mxPoint x="622.3003220966609" y="1129.0740740740741" as="targetPoint" />
            <Array as="points">
              <mxPoint x="388" y="803.4567901234568" />
              <mxPoint x="388" y="1090" />
              <mxPoint x="1026.2075592159867" y="1090" />
              <mxPoint x="1026.2075592159867" y="41.51234567901235" />
              <mxPoint x="1312.7497286598993" y="41.51234567901235" />
            </Array>
          </mxGeometry>
        </mxCell>
        <mxCell id="ctBUiZ3gcc4E49hoRwvt-30" value="&lt;font style=&quot;font-size: 20px;&quot;&gt;false&lt;/font&gt;" style="edgeLabel;html=1;align=center;verticalAlign=middle;resizable=0;points=[];fontSize=20;container=0;fontStyle=0" parent="ctBUiZ3gcc4E49hoRwvt-29" vertex="1" connectable="0">
          <mxGeometry x="-0.7483" y="-3" relative="1" as="geometry">
            <mxPoint as="offset" />
          </mxGeometry>
        </mxCell>
        <mxCell id="ctBUiZ3gcc4E49hoRwvt-33" value="i &amp;lt; x_len" style="rhombus;whiteSpace=wrap;html=1;fontSize=20;strokeWidth=1;fontStyle=0;container=0;" parent="1" vertex="1">
          <mxGeometry x="1260.3646102279258" y="268.141975308642" width="104.19715252505908" height="104.19753086419753" as="geometry" />
        </mxCell>
        <mxCell id="ctBUiZ3gcc4E49hoRwvt-34" value="" style="edgeStyle=orthogonalEdgeStyle;rounded=0;orthogonalLoop=1;jettySize=auto;html=1;fontSize=20;fontStyle=0" parent="1" source="ctBUiZ3gcc4E49hoRwvt-26" target="ctBUiZ3gcc4E49hoRwvt-33" edge="1">
          <mxGeometry relative="1" as="geometry" />
        </mxCell>
        <mxCell id="ctBUiZ3gcc4E49hoRwvt-35" value="sum = sum&amp;nbsp;+ (x[i] - mean)^2" style="whiteSpace=wrap;html=1;fontSize=20;strokeWidth=1;fontStyle=0;container=0;" parent="1" vertex="1">
          <mxGeometry x="1175.7044238013152" y="476.53703703703707" width="273.5175253782801" height="78.14814814814815" as="geometry" />
        </mxCell>
        <mxCell id="ctBUiZ3gcc4E49hoRwvt-36" value="" style="edgeStyle=orthogonalEdgeStyle;rounded=0;orthogonalLoop=1;jettySize=auto;html=1;fontSize=20;fontStyle=0" parent="1" source="ctBUiZ3gcc4E49hoRwvt-33" target="ctBUiZ3gcc4E49hoRwvt-35" edge="1">
          <mxGeometry relative="1" as="geometry" />
        </mxCell>
        <mxCell id="ctBUiZ3gcc4E49hoRwvt-37" value="&lt;font style=&quot;font-size: 20px;&quot;&gt;true&lt;/font&gt;" style="edgeLabel;html=1;align=center;verticalAlign=middle;resizable=0;points=[];fontSize=20;container=0;fontStyle=0" parent="ctBUiZ3gcc4E49hoRwvt-36" vertex="1" connectable="0">
          <mxGeometry x="-0.1481" y="1" relative="1" as="geometry">
            <mxPoint as="offset" />
          </mxGeometry>
        </mxCell>
        <mxCell id="ctBUiZ3gcc4E49hoRwvt-40" style="edgeStyle=orthogonalEdgeStyle;rounded=0;orthogonalLoop=1;jettySize=auto;html=1;fontSize=20;fontStyle=0" parent="1" source="ctBUiZ3gcc4E49hoRwvt-38" edge="1">
          <mxGeometry relative="1" as="geometry">
            <mxPoint x="1312.463186490455" y="229.0679012345679" as="targetPoint" />
            <Array as="points">
              <mxPoint x="1566.4437457702866" y="229.0679012345679" />
            </Array>
          </mxGeometry>
        </mxCell>
        <mxCell id="ctBUiZ3gcc4E49hoRwvt-38" value="i = i + 1" style="whiteSpace=wrap;html=1;fontSize=20;strokeWidth=1;fontStyle=0;container=0;" parent="1" vertex="1">
          <mxGeometry x="1520.8574915405732" y="333.2654320987654" width="91.1725084594267" height="78.14814814814815" as="geometry" />
        </mxCell>
        <mxCell id="ctBUiZ3gcc4E49hoRwvt-39" value="" style="edgeStyle=orthogonalEdgeStyle;rounded=0;orthogonalLoop=1;jettySize=auto;html=1;fontSize=20;fontStyle=0" parent="1" source="ctBUiZ3gcc4E49hoRwvt-35" target="ctBUiZ3gcc4E49hoRwvt-38" edge="1">
          <mxGeometry relative="1" as="geometry" />
        </mxCell>
        <mxCell id="ctBUiZ3gcc4E49hoRwvt-41" value="std = (sum / x_len)^0.5" style="whiteSpace=wrap;html=1;fontSize=20;strokeWidth=1;fontStyle=0;container=0;" parent="1" vertex="1">
          <mxGeometry x="1188.7290678669476" y="658.8827160493827" width="247.4682372470153" height="78.14814814814815" as="geometry" />
        </mxCell>
        <mxCell id="ctBUiZ3gcc4E49hoRwvt-42" value="" style="edgeStyle=orthogonalEdgeStyle;rounded=0;orthogonalLoop=1;jettySize=auto;html=1;fontSize=20;fontStyle=0" parent="1" source="ctBUiZ3gcc4E49hoRwvt-33" target="ctBUiZ3gcc4E49hoRwvt-41" edge="1">
          <mxGeometry relative="1" as="geometry">
            <Array as="points">
              <mxPoint x="1078.0195933090722" y="320.24074074074076" />
              <mxPoint x="1078.0195933090722" y="697.9567901234568" />
            </Array>
          </mxGeometry>
        </mxCell>
        <mxCell id="ctBUiZ3gcc4E49hoRwvt-43" value="&lt;font style=&quot;font-size: 20px;&quot;&gt;false&lt;/font&gt;" style="edgeLabel;html=1;align=center;verticalAlign=middle;resizable=0;points=[];fontSize=20;container=0;fontStyle=0" parent="ctBUiZ3gcc4E49hoRwvt-42" vertex="1" connectable="0">
          <mxGeometry x="-0.7866" y="-1" relative="1" as="geometry">
            <mxPoint x="-12" y="1" as="offset" />
          </mxGeometry>
        </mxCell>
        <mxCell id="ctBUiZ3gcc4E49hoRwvt-45" value="" style="edgeStyle=orthogonalEdgeStyle;rounded=0;orthogonalLoop=1;jettySize=auto;html=1;fontSize=20;fontStyle=0" parent="1" source="ctBUiZ3gcc4E49hoRwvt-41" target="ctBUiZ3gcc4E49hoRwvt-44" edge="1">
          <mxGeometry relative="1" as="geometry" />
        </mxCell>
        <mxCell id="ctBUiZ3gcc4E49hoRwvt-50" value="&lt;font style=&quot;font-size: 20px;&quot;&gt;end&lt;/font&gt;" style="ellipse;whiteSpace=wrap;html=1;strokeWidth=1;fontSize=20;fontStyle=0;container=0;" parent="1" vertex="1">
          <mxGeometry x="1234.315322096661" y="1023.5740740740741" width="156.29572878758862" height="65.12345679012346" as="geometry" />
        </mxCell>
        <mxCell id="ctBUiZ3gcc4E49hoRwvt-51" style="edgeStyle=orthogonalEdgeStyle;rounded=0;orthogonalLoop=1;jettySize=auto;html=1;entryX=0.5;entryY=0;entryDx=0;entryDy=0;fontSize=20;fontStyle=0" parent="1" source="ctBUiZ3gcc4E49hoRwvt-44" target="ctBUiZ3gcc4E49hoRwvt-50" edge="1">
          <mxGeometry relative="1" as="geometry" />
        </mxCell>
        <mxCell id="ctBUiZ3gcc4E49hoRwvt-4" value="x" style="shape=parallelogram;perimeter=parallelogramPerimeter;whiteSpace=wrap;html=1;fixedSize=1;fontSize=20;strokeWidth=1;fontStyle=0;container=0;" parent="1" vertex="1">
          <mxGeometry x="549.3623153291196" y="386.6666666666667" width="145.8760135350827" height="78.14814814814815" as="geometry" />
        </mxCell>
        <mxCell id="ctBUiZ3gcc4E49hoRwvt-6" value="read" style="rounded=0;whiteSpace=wrap;html=1;fontSize=18;fontStyle=0;strokeWidth=1;container=0;" parent="1" vertex="1">
          <mxGeometry x="576.71" y="386.67" width="43.29" height="26.05" as="geometry" />
        </mxCell>
        <mxCell id="ctBUiZ3gcc4E49hoRwvt-44" value="std" style="shape=parallelogram;perimeter=parallelogramPerimeter;whiteSpace=wrap;html=1;fixedSize=1;fontSize=20;strokeWidth=1;fontStyle=0;container=0;" parent="1" vertex="1">
          <mxGeometry x="1234.315322096661" y="841.2283950617284" width="156.29572878758862" height="78.14814814814815" as="geometry" />
        </mxCell>
        <mxCell id="ctBUiZ3gcc4E49hoRwvt-46" value="&lt;font style=&quot;font-size: 18px;&quot;&gt;return&lt;/font&gt;" style="rounded=0;whiteSpace=wrap;html=1;fontSize=18;container=0;fontStyle=0" parent="1" vertex="1">
          <mxGeometry x="1260.36" y="841.23" width="59.64" height="26.05" as="geometry" />
        </mxCell>
        <mxCell id="zpOfDcBOK7WBM-TKvKRK-1" value="" style="shape=image;verticalLabelPosition=bottom;labelBackgroundColor=default;verticalAlign=top;aspect=fixed;imageAspect=0;image=data:image/png,iVBORw0KGgoAAAANSUhEUgAABvgAAAHrCAYAAAAKUZrJAAAAAXNSR0IArs4c6QAAAARnQU1BAACxjwv8YQUAAAAJcEhZcwAAEnQAABJ0Ad5mH3gAAM0wSURBVHhe7N2HexRV38bx9x8gjRJa6L33JggoiBQRpAgIqChFFBEEREUEC4oiomAXFQsI2FBQihQpolTpvdcQILQEQsr9MmF42GzObnaTTbK7+X6u676e95U5s7szk9md+c055/8EAAAAAAAAAAAAIGBQ4AMAAAAAAAAAAAACCAU+AAAAAAAAAAAAIIBQ4AMAAAAAAAAAAAACCAU+AAAAAAAAAAAAIIBQ4AMAAAAAAAAAAAACCAU+AAAAAAAAAAAAIIBQ4AMAAAAAAAAAAAACCAU+AAAAAAAAAAAAIIBQ4AMAAAAAAAAAAAACCAU+AAAAAAAAAAAAIIBQ4AMAAAAAAAAAAAACCAU+AAAAAAAAAAAAIIBQ4AMAAAAAAAAAAAACCAU+AAAAAAAAAAAAIIBQ4AMAAAAAAAAAAAACCAU+AAAAAAAAAAAAIIBQ4AMAAAAAAAAAAAACCAU+AAAAAAAAAAAAIIBQ4AMAAAAAAAAAAAACCAU+AAAAAAAAAAAAIIBQ4AMAAAAAAAAAAAACCAU+AAAAAAAAAAAAIIBQ4AMAAAAAAAAAAAACCAU+AAAAAAAAAAAAIIBQ4AMAAAAAAAAAAAACCAU+AAAAAAAAAAAAIIBQ4AMAAAA88Msvv2j8+PHq1q2b2rVrRwghhBBCCCGEkDyc999/375jkDso8AEAAAAZmDBhgvLly0cIIYQQQgghhBCSmqefftq+a5A7KPABAAAAblDcI4QQQgghhBBCiHMo8AEAAAB+rFWrVsYf8oQQQgghhBBCCMm7ocAHAAAA+KmtW7caf8QTQgghhBBCCCEkb4cCHwAAAOCn3n33XeOPeEIIIYQQQgghhOTtUOADAAAA/NR9991n/BFPCCGEEEIIIYSQvB0KfAAAAIAf2rdvn/EHPCGEEEIIIYQQQggFPgAAAMAPffLJJ8Yf8IQQQgghhBBCCCEU+AAAAAA/1L17d+MPeMdMmDCBEEIIIYQQQggheTB//PGHfQchd1DgAwAAAJwcP35cBQoUMBb1HHPs2DG7BQAAAAAAQM6hwAcAAAA4+frrr40FPcdERkbaSwMAAAAAAOQsCnwAAACAk4cffthY1HPMiBEj7KUBAAAAAAByFgU+AAAAwMH58+cVFRVlLOo5ZsuWLXYLAAAAAACAnEWBDwAAAHAwd+5cY0HPOQAAAAAAALmFAh8AAADg4IknnjAW9BzTr18/e2kAAAAAAICcR4EPAAAAsF29elUVKlQwFvUcs3z5crsFAAAAAABAzqPABwAAANjmz59vLOg5BwAAAAAAIDdR4AMAAABsw4cPNxb0HNOpUyd7aQAAAAAAgNxBgQ8AAACw1axZ01jUc8xPP/1kLw0AAAAAAJA7KPABAAAANyxbtsxY0HMOAAAAAABAbqPABwAAANzw4osvGgt6jrnzzjvtpQEAAAAAAHIPBT4AAADghsaNGxuLeo75/PPP7aUBAAAAAAByDwU+AAAA5Hlr1641FvSck5CQYLcAAAAAAADIPRT4AAAAkOe99tprxoKeY6pXr24vDQAAAAAAkLso8AEAACDPu+uuu4xFPce89dZb9tIAAAAAAAC5iwIfAAAA8rT//vvPWNBzzqlTp+wWAAAAAAAAuYsCHwAAAPK0yZMnGwt6jomKirKXBgAAAAAAyH0U+AAAAJCntW/f3ljUc8zo0aPtpQEAAAAAAHIfBT4AAADkWXv27DEW9JyzY8cOuwUAAAAAAEDuo8AHAACAPOujjz4yFvQcExERYS8NAAAAAADgHyjwAQAAIM/q1q2bsajnmAEDBthLAwAAAAAA+AcKfAAAAMiTjh07lto7z1TUc8yqVavsFgAAAAAAAP6BAh8AAADypK+++spY0HMOAAAAAACAv6HABwAAgDypb9++xoKeY7p27WovDQAAAAAA4D8o8AEAACDPOXv2rIoVK2Ys6jlm3rx5dgsAAAAAAAD/QYEPAAAAec6cOXOMBT3nAAAAAAAA+CMKfAAAAMhzBg4caCzoOeauu+6ylwYAAAAAAPAvFPgAAACQp8TFxal8+fLGop5jvvzyS7sFAAAAAACAf6HABwAAgDzlt99+Mxb0nJOcnGy3AAAAAAAA8C8U+AAAAJCnPPPMM8aCnmNq165tLw0AAAAAAOB/KPABAAAgT6lRo4axqOeYyZMn20sDAAAAAAD4Hwp8AAAAyDP+/PNPY0HPOTExMXYLAAAAAAAA/0OBDwAAAHnGCy+8YCzoOaZChQr20gAAAAAAAP6JAh8AAADyjIYNGxqLeo4ZM2aMvTQAAAAAAIB/osAHAACAPGHNmjXGgp5z9uzZY7cAAAAAAADwTxT4AAAAkCe8+uqrxoKeY4oWLWovDQAAAAAA4L8o8AEAACBPaNGihbGo55jBgwfbSwMAAAAAAPgvCnwAAAAIeps3bzYW9Jyzdu1auwUAAAAAAID/osAHAACAoDdp0iRjQc8xoaGh9tIAAAAAAAD+jQIfAAAAgl67du2MRT3H9OjRw14aAAAAAADAv1HgAwAAQFDbvXu3saDnnAULFtgtAAAAAAAA/BsFPgAAAAS1Dz74wFjQcw4AAAAAAECgoMAHAACAoNalSxdjQc8x99xzj700AAAAAACA/6PABwAAgKB15MgRhYWFGYt6jvnmm2/sFgAAAAAAAP6PAh8AAACC1pdffmks6DkHAAAAAAAgkFDgAwAAQNDq3bu3saDnmCZNmthLAwAAAAAABAYKfAAAAAhKMTExKlq0qLGo55j33nvPbhH8kq9e1MWLGefC2dM6tvNfLVq4UAsJuZFFy2PtowgAsk/iuf3659a5Z9EyrfrnhK7Z/wYAgEfiTmn7coffsovW6HiC/W9wKzExUcePH9eaNWs0Z84cTZ48OU1+/fVXrVy5UocPH9aVK1fsVshNFPgAAAAQlL7//ntjQc85sbF5o3AR98+76lunhCrUaqRGjdynYd2aqlqlsioVNG8zkvcSUqijPj+aaB9NAOB7V3d8pcdb1lPl4qGp553CNSqoVLGaav/UfF2wlwEAwL04/fxAU9WqUOj279jIiqrT/EF9uOWqvQwcWdfDc+fOVd++fVWiRIn/bTdPUqdOHQ0fPjy1kHrp0iV7jchJFPgAAAAQlAYMGGC8CHFMjRo17KWD38HP71N+wzYgxKPkr6N+n+wUJT4AvpeiU78MUpXIAopwPveEl1PL/vN00V4SAAD3LmnmPVVVPMLp+yRffpWq20GvLDqpZHvJvCwlJUW7d+/WE088oSJFijhtq8zFWo91Df7vv/8qOZmtnFMo8AEAACDoWMOFlC1b1njh4Zhx48bZLYLddS3pW9i4DQjxOGWHa2OKfUgBgE9c0br3uql84fwKS3feCVXR6sO0PN5eFAAAD1w/Nk/PNi6h8HTfKxEqWCRKnT/ek6cfWrOmshg7dqzPCnumdOvWTX///TeFvhxAgQ8AAABBZ968ecYLDeccOHDAbhHsEvX38PLGbUCIxyl4r6buoQ8fAB+5flJrJnVSGdP5Jl+ICtfopy93Mr8PAMB751a8orsjQwzfL6HKX7iUWo/5XSfz2INrVrHt559/Th1WM/12yZ4MHjxYp0+ftt8BsgMFPgAAAASdoUOHGi8wHGP18MtL9r7fSZXCzNuCEI8SUVFthy3WZfuYAoBMu/iP3hvQXKVM5xqruFf7cX25nbl8AACZlaITvz6nlkVM3zNWCqn583mnyBcfH6+JEydma689V2nSpImWL1+eOiwofI8CHwAAAIKK9WRitWrVjBcXjnn66aftFnnD9f0z9VgV87YgxOOUGqgV1+2DCgAy48JaTX2skQqbzjFWItvp/a0U9wAAWZWiAzP6qpLpuyY1VpHvj6Av8l2+fFnDhg0zfP7bsYbUnDVrVuq8fOfOnVNCQkJqrP/7+PHjWrJkSer0Fpnt/WcVFmfMmKHEREYD8TUKfAAAAAgq1sWH6aLCOevXr7db5BUpOvhFL1UMMW+PTKVaH037Z59OxsbqzIljOnYsD+bEKUXvW69FCxdp8eLFhizSwj9+1swvPtS7b47R0H7d1eGuRqpZsazKli2lyHDT0EF+nPDGGvXHSfnLbBrWjQfrRsTKlSv/l40bNyr2xjGZHU8JW+u8ePGitmzZkuY1b+Xw4cOpT0gDcCF2rT54vJEKmc4vViIbasBX+/3mHAMACHRJ2v5eR5U0feekpqDufH6hTgXpF4+74p5VdHviiSd06NAhj383WwW6NWvWpBYETet0F+v1pkyZQpHPxyjwAQAAIKiMHj3aeEHhmMKFC9tL5zUJWvtiQ9c3Vr1NsXv00u8nuBHrkRQlXb/5JOy1q/G6fOG8zp8/pzMnj+rwwf3asXGNlv3xi77/6iO9O2GsBt9XT+WiIhVh2u65nGJdv9MZ+1PllpiYGL399tuqUqWK8T1aadSokT755JPUJ4+zwirYWcW7ESNGuH09x7Rt21YffvhhahGY4YgAW+y/+ri/m+Jevkjd9eq/umYvDgCAb1zT6lF1VMD43WOloJq/sEjRQXZRExcXp+HDhxs+781hM5ctW5Y6+k1mXLt2TXPmzPG6Rx9FPt+jwAcAAICg0qBBA+PFhGN69+5tL533pEQv0avtSynUsF0ylYqP6wfmTfep5OREJcRfVuy5Mzp1ZK+2rV2sH7/+UG+9PFKD76+rqNyeS7HoQ/rlov1mc5hVLLN66XpzM8Fadu7cuV7fSLAKg++//77HRT1Tbj0ZfeTIEXutQB6VfFy/jWqqgoa/k5sJU40n/9AFe3EAAHwqboemP1zNzcNzBXXni4t1JkiKfNZvZuthM9Nnvf/++7V//357yazZuXOnWrdubXwdV7F+H1vFQR6C8w0KfAAAAAgaq1evNl5EOGfRokV2i7zp4uo31b1quHHbeJ8iqnr3WK2ly0X2S7quq5fPK/roHv236lfNmDJez/ZtqGK+HHbVk4TU0ICZ+5TTz91aNwGsmwHWTQHj+8ogEyZM8Gj4TOtp52nTpqlEiRLG9WQmVpHQeu88rYy86bLWT+6oKMPfxs2EqGznd7Uulx4cAADkDUlH5umZemGG76FbKaBmL6/SFXv5QLZ27VrjQ2otW7ZMHd7el6z1Wet1fi13qVevnrZt22avAVlBgQ8AAABBY/z48cYLCOcgWTvfu1fFDNsmUwkprwenrRP3ZnNaihLjY3Vy/wYt/v4jTRj5uLrcXdq8j3ycQm2maFcOP+H8008/ZbnoNnnyZJdFNquA+N9//6U+1Wxqm9UwJBHyphTt+7iTm+JePoVUeURfbb9qLw8AQPY58/NA3V0+wvh9dDNF1WbSZl23lw9E1lzUffv2TffZrILfqlWr7KV8y1qvt6NeDBgwQJcuXbLXgMyiwAcAAICg0bx5c+PFg2M6duxoL53HJezXrCfq+G6OtxLt9Maa82KglVyUck0Xo3dp2deT9PzA7rqnURmFmPaVL5L/Xk3dk3N72/RksFUwGzt2rE6cOJFanDt16pRefPHFNMs4x9WNDavo9t1337ksIFqv1bNnT82aNUuHDx9OHb7zVqKjo7VgwQJ16tTJ2NYxDEmEvObEnMfUrKz7G6n3vreL7w4AQA5J1o4pbVTE+J10M6FRDdXj84P28oFn9uzZxs/15ZdfZttvUGu9roYEdRfrvSJrKPABAAAgKGzcuNF40eAc6wY9bko+8rOebRpp3E6ZSWiNwfo1xl45clfKFZ05sE5z3xysnm0bKL9hf2Ut5fTAW2t02X657GQNmTlkyJA0r28VymbMmJGuN5xV7Gvfvn2aZZ1jPdFsPdl8i7V+V71/rfn7Pv74Y505c8Ze2rVr165p0qRJxvU4hiGJkFdcXve+etdwNxx0mGoPX6QLVPcAADnp2l5990Rdtw86hlR4UNP+DbzxSazfuL169Ur3eR588EGPfs9mRUxMjPG13cX63W79fkfmUeADAABAUHj77beNFw3OQVrR3z+ksobtlLkUVuNBX2o3IxD6kRRdiz2s5R8PVe92jVXQuN8yl7Bqg7UsB+ZenD9/fmpBz/G1J06caBzq0np62Jprz3FZ51jrstZpsYp7o0aNMi5j9Q60blR4w1SMNOW1115TUlKS3QoIPskn/9RrHUor1HD830rpduP0+2m7AQAAOShp/3ca0sT9g45Fmo/W/COBNVjn8uXL0/1utmI9zLZy5crUUTESEhLspX3P9Ls9o1gP7SHzKPABAAAgKLRt29Z4weCYu+66y14at13R+jdbKdKwvTKV/DX02Ne7lQN1H3gp6dIRrfhgkDo1r+WjQl91jVx9KVuH1jM9hZzRk74zZ85Ms7wpo0ePTl338OHD0/2bNdTvP//8k+khjFzdWHGMNdyoNdQnEJQST+qXZxq4Pc9EVLpXw+dH2w0AAMh5R7/orOKG76jbCVPl3tO1O0CmibUeHhs3bpzhc6SNNWT9Z599ljr6hK+56kHoLtbyjqNrwDsU+AAAABDwrCcRTRcLzvnggw/sFkgjbq0m96ymMMM2y1RKddAnh+x1w+8knduheRMeUotaZbM8dGfl/nOVnYPqmJ4CzmiuDlfzjjimSZMm6tatW7r/bg3fmdVhgo4ePapWrVqlW7dzrHn7gOCTogOfdVVpwzF/O2GqO2qZLtktAADIFYmH9MPQBhnMSR6pu15br+zr8+Y7Z8+eVefOnQ2fwRxrFAtr9Alfs3rkmV7PVazf+mvXrrVbw1sU+AAAABDwPJ3Q+9Ilbie6Er9uorrU8W44FXfJ32iYFp63Vw6/dHHHz3rjsbtUxrD/PE7Bbvohm6YnsW44DBo0KM3rdezYUadOnbKXMPOkwGeKNbTm+fNZP2gvX76s/v37G1/DMdZ8fUCwubzpYz1UyXzM30qR5iP0M0NzAgD8QOKeLzSgWQnj99X/UrytXl+RvfPX+YI1x3OtWrXMn8FFrOvozI5a4Upm3oc1/L6v30deQYEPAAAAAa9r167GCwXHNGzY0F4aZsk69HlnFTNsu8wlXA2GzdMRphnzbwmn9O+Hj6hexSgVMO7HjFJOj8w+puyYdtF0c2Dq1KkZXvxnpsBnFeS8nW/Plfj4eA0dOtT4Oo6xhgnNzjlQgBx3aYMmdSidQW/wcDV7Z2+2Du0LAIDnkrVv6j0ZDF8foqJNRmtxTLLdxj8tW7bM8N7dxxrVYu/evfYafOPixYvq06eP8fVcxVreagfvUeADAABAQDt27JgiIiKMFwqOefXVV+0WcCn5qH4Z2UyFDNsvU4msrsG/nb1x2Qx/d3nzFxrYvq5KmvZjBinT+V1tz4ZC7rRp09K8Tvny5bVhwwb7X11zbpdRevTooeho380F5mmBz1rGWhYIDsn677VWKhliPt5vpWKvj7UlQOYyAgDkEfFr9Hqn8sbvrduJVMMnl+iK3cQfZXYUi+nTp9tr8A3rYbwJEyYYX8tVGjVqpD179thrgDco8AEAACCgeTrG/5EjR+wWcOv0fI3uUEnhhm2YmURU66Yvjtnrhn+7tkdzR9/r/ZCdoXfr3V2+7Y9jevLXkwn4r169quHDh6dp5y5VqlTRpk2b7Na+QYEPedGF1RN1X0nzsX4rhSq11LPLfD/XDwAAWXX55+4qbPjuSpNCzTTqtxN+2wvdGv7d+L4ziPXb2foN7UuZKTZaPRDhPQp8AAAACGgPP/yw8QLBMdWqVbOXhicur35Fd1crlsEwa56n2L2va/Vle+Xwc/HaOK2HKkXm92L/l1Tn9zfLlzNcmobn9GRujpMnT6pdu3Zp2rmKNaH/nDlzfD7fBwU+5DnxmzW5fYUMhvkNUc2nf5f/z2AEAMiTUk7q9xGNFGH8DruVcJVqPFpLYv2zxPfmm28a3nPGyY7fpGvXrjW+lrtYRUF4jwIfAAAAAtb58+cVFRVlvEBwzLBhw+wW8Ey8Nk9ul/FTrF6kxgvrRb+NwBH922BVKRDhYZEvVOXajdHf1+zGPmANFeT8Op481bt58+bUoTyd25piPa0cF+f7o/LcuXPq1KmT8TUdQ4EPwSFFu6d0V9Vw83F+K8XrdtZUOtIDAPxY8raJapbBUNP5QkrozicW++V1jen3syfJjt+k3vwmvxVfDxWaV1DgAwAAQMD64YcfjBcHzrEuMOCllL36qF8DRRq2Z2YSUa65Riz1ZR8vZLfo+U+qSkS4h0W+KPVfft1umTUJCQkaPXp0mvW3atVKR48etZdwbebMmWnauUqTJk20e/duu5VvHThwQM2aNTO+rmOsuUl83XsQyGlJJ2fqwaLmY/x2QlR71Aqdt9sAAOCXUk5q/ojGym/8LnNIeDO9tv6i3ch/LFiwwPx+M8i4ceOUlOTbCbX37t2b+nvb9HquYvVAhPco8AEAACBgDR482Hhx4JhSpUrZS8Nr0T/qsaZlMxiqxvMUa/qEZp6y142AEP37U6oaFqrQjJ5mzhepVq+u0lm7XVaYhtkcNGhQhr3tTIVBV/nwww+zrbi2bt261OE/Ta/rGJ5SRuC7rj8fbqRSbnvvhSiqdgd9eMJuAgCAH0vZ+bbuzOh3b1iU6tz3jrYk2o38xOHDh9WyZUvze3YTqzDoaxT4cg4FPgAAAAQk62Z+pUqVjBcHjunXr5/dAt5L0pkfe6u4YbtmNqUe/Ey7EuzVIwCk6PTvQ1UzNFQhbm92RKhUvY6aFWs3ywJTgcyTYtjZs2fVuXPnNO1M6dq1q06fPm238j1Ph0fyZMhRwJ9dWv+mWhcyH9+3E6K6o5Yphs6qAICAcFK/Dm+Y8QOOoTU1cNaBG1dL/sPqhTdp0iTz+3WRXr16KSYmxl6D71DgyzkU+AAAABCQ/vjjD+OFgXOWLl1qt0DmnNOSMS1UyLBtM5OIEjXUccp/8uF0bch2KTr1x3DVDTXv09spqt6/XrbbZN7y5cvTFPis+Ts8GWbX07k+snNoTE97ETZq1Eh79uyxWwEBKGWv3m9dXcXCzMf4rURWa6OPT9ptAAAIACm73lHLDH/33kjNZ7XYBw+3+VJ0dLR69Ohhfr9OqVKlilatWmW39C3rd671e9f0uq4ybdo0uzW8QYEPAAAAAWnkyJHGCwPHFCxY0F4aWZKyS5Pur6xwwzbOTArWeEDjVlywV47AkKx9X/ZRRcP+vJ0I1XrkI23P4lR8iYmJqcW6lStXau3atTp37pxHBbnZs2cb3lP6ZMcwRLdYT0B37NjR+LqOsXoRxsb62R0hwAtnlryoZgXNx/ft5FfTMcvk+34BABBkEvdr+8Y1qcWWPJF1W7Tbr6fmPqlfnq6b8TzUIZXU7a21irdb+Yv9+/erW7du5vdsp06dOqm/tbProTfrN7zpdd3F+i0P71HgAwAAQECqW7eu8cLAMd27d7eXRlZd3T5VHcsVMG7nzKR4m3Fawl3fAJOgv19orRKG/fm/hDTVB7nQW8dfes552otw3LhxqcMoAQEpZbemtAozHttpU0dvH7HbAABcil/zsvo0r6BIT3qNBXzyq2T9zhr2g39PzJ28fqhKGd+/UyLu0RfRdiM/Eh8fr59++il1+HrHkTGsOfo++eST1AfostMPP/yQdjt5EKsoCO9R4AMAAEDAsZ42NF0UOGfu3Ll2C2TdNe3+5hFVMmznzKbMIz/ojL12BIjEXfqoSxXlN+zPm4lUpy+OKdlePKd4Ov9enz59dPHiRbuV73k6/1529iIEstuZP19Us/zmY9sx5Xp9pt3UsQEgQ+d+f0aVDefR4E1hdfl8b47/XvRK0ha9eV8Zw3t3Thl1fnutrtjNcJM1n555e5nTrFkzHThwwG4Nb1DgAwAAQMCxer+YLgycA187rpmPVFWoYVtnJmElGqjbhzuVaK8dgSFu56d6oLh5n+bLF6oq3d/S2jh74RziD/PvxcXFadCgQcbXdUyTJk20d+9euxUQYJJ36t27w43HdtoUVvc55/375i0A+ImYBc+orPFcGqyJUKfP9vj5d0Syon8blMHw9HYK3KPPT9vNoMuXL6t///7mbeUi1vJWO3iPAh8AAAACzp133mm8MHBM+/bt7aXhSynnFuv5O6OM2zwzKVj/MX24jRJfYEnStnc7qqRhf95MKQ1YkbP71B/m37OKdlbxzvS6juEGBgJXis4sfUF3hJuPbccUbDRUSzjMAcAjFPj81NWlerJuQcP7d05JdZz0j/jau8nT38SOmTZtmt0a3qLABwAAgICyceNG40WBc6y5BZAdUnR2zUtq7MENXk8T1fkD7fC32enh3rVd+qR7JYUb9qfVi6/Ry/8op3app/Pv1apVS9u2bbNb+d68efOMr+scbmAgYCXv0LutIozHddpEqeune3TVbgYAcI8Cn7+6onVTuni2bwq10ef+Pa1gjvH0N/GtWKNwWKNxIHMo8AEAACCgvP3228YLA+dYE4sju8RqyfMdVCnCvO29T4gqD/xN5+21IzBcWDNJncua9mc+lWk1VD/F2AtmM3+Yf8/TIqN1A2PDhg12KyCwXP/vLd3lycMdYa31GTc5AcBjFPj82IGP1N6DeWetESx6frVP1+xmedW1a9c0cuRIw/ZxHWuIe2uoe2QOBT4AAAAElLZt2xovDBzTokULe2lkn4Oa3qWscftnKiVaa/SvJ5Q9s6Mhe1zTyhF1VcC0P/NF6aH5OXOh7un8e9bcnUlJSXYr3zp69KhatWplfF3H9OrVS7GxsXYrIJCc1U/P3K3ShuPaOcU6vKddnMwBwGNxf41S8yLmc2pQJrymHvnuhP3p/Vzybk3rVML8OZwSUudFbcjjk8/u3LlT9erVM24fU4oUKaL58+fbrZEZFPgAAAAQMHbv3m28MHDOG2+8YbdAdko89oOeqOHJcG2eJbLZKM07mj0FGGSPpP0zNaBGiHF/1nr2T8XkwE0OT+ff++GHH+wWvmfN7Wd6TedMnTpVKSlUPhCAzs7UA8XMx3XalNNjP58WZ3IA8ELKJZ3YuVorV/+ttWvXBnfWrNJfmw/rXMBMwX1de2cOUI0Q03eec2rohfV59xvQ+o1r/dY1bxtzBgwYoEuXLtlrQGZQ4AMAAEDA+PDDD40XBs45fvy43QLZK0n7Zz2tJoXM+yEzKd39Cx2i/hFAErRqWHWFGfZlvuLdNeOYvVg28Yf59xieE8HvqnZM760KhuM6XaI66Xs6qQIAgsmFH9Tdo+udSN3x9EwdzqPXMidOnFD79u0N28Uc67fx6tWr7dbILAp8AAAACBhdu3Y1Xhw4xhoSBDnprOYNqq5Qw77IVApWVuvhi3XBXjv8X8LmKepVPcywPwuo8+zs3ZOezr9nnTuya2hMhudE0Lu2XEOqhxqP67SJUounvxeP2AAAgssxfdK+iOF7z5Aid2vaYbtZHmL13vvyyy/N28RFJk6cqMTEgOnK6bco8AEAACAgHDt2TBERGQ8HOWrUKLsFcsz1nZrSxsOLXk9S+B69viqG+fgCRpwW9I1SiGFfVuz/k45dtxfLBv4w/968efOMr+kchudEoLq2apgqG47p9KmuYX8yzBYAINhc155vB6lOmOm7zzlF1fGjvYq3W+YV3vbe69Gjh6Kjo+3WyAoKfAAAAAgIM2bMMF4cOGfr1q12C+SkuH+mqFe1cOM+yUyKNn9RS87m8VnqA8j1f1/XuDHPaeSI4Rr8aA/dU6eMytS4Qw88N11rs7HT2syZM43Hj3Osefqyw7Vr1zRy5EjjazqG4TkRuE7oxxF3qbjhuE6Xgt00l06qAIBgdP5H9Sxi+O4zJOKOMfr7mt0uD7AeYPN0Kg0rVapU0apVq+zWyCoKfAAAAAgIDz/8sPECwTGVK1e2l0bOS9C2D/uqUTHzvslMKvX9XifttSNQJOvqhdM6fvSIjhw9qpNnLyp7+s35x/x7e/fuVZMmTYyv65g+ffro4sWLdisggJybpQfKhBiPa+dEdvxUB+xmAAAEl5P6rG0h4/df+tTR+K15Z9QG63e2NU2GeVukTZEiRTRnzhxGtfAhCnwAAADwe+fOnVPx4sWNFwmOGTx4sN0CueO0vu9T2rhvMpXw2howY4fy0AOw8EJMTIw6duxoPnYcYs3RZ83Vlx087Vk8ffp0uwUQSBJ1cs7DKm04ptMlpIYe+2qHrtotAQAILte0bfoA1c9v+A5Ml4JqOe4vxeSBGlZcXJyGDBli2AbpYxX3pkyZwrx7PkaBDwAAAH5v7ty5xosE5/z11192C+SWlJO/64WWhY37JzMJL9tVH2y5Yq8duC2359+zbmgMGjTI+JqOsZ5o3rlzp93Kvfj4eK1bt06ffvqpfv3119QnopOTGaoWuSR5l6Y9UMp4XKdL+D36+JjdDgCAIJS072N1LGz4DjQkov4Q/XHBbhikrF54Vm88q3Bn2gbOmTx5MsW9bECBDwAAAH7viSeeMF4kOCYqKspeGrktesEo3Vsu1LifMpPizd/UDkZxgZPcnn/PKr5Zw3+aXtMxQ4cOTS3cZcS6STJx4sQ0ba3hP61hQIFccXq67glLezy7TO2xyp6BcAEA8BMp6zSsrOE70JiKGrUpuC9gdu/erZYtWxo+e/pMmDDBo9/D8B4FPgAAAPi1a9euqWLFisYLBcdYc/TBX8TrzycrKqpgmHFfeZ8CajLqD2XPIIsIRLk9/55VjJs6darxNZ0zb948u5V7sbGx6tWrV5q22Tm8KOBekmLmPKQoh+PRZUIq6r4Xf1eM3RIAgOAUq3n9Spq/C9MlQi3f2qJgHYfEGsli+PDhhs+dPuPHj09dHtmDAh8AAAD82u+//268UHDOzz//bLeAX0jcp8+6Rhn3VeZSWYPmHReDusCS2/PvWeu01m16Tce0a9dOJ0+etFu5t2HDhnRDjlpFRKuYCOS4xJ36uHdlhTgcjy4T1kgj/zhtNwQAIFgl6cDs4WpexPBdaEjxe1/Vqst20yBiDbNpDbdp+szOoede9qPABwAAAL82YsQI48WCYyIiIuyl4U9S9n6oxxr6aj6+EEVWflBfH6fYgdyff2/58uUezTfy2muvefT6ph6B1vrXrl1rLwHksJhZ6lIg7fHsMgU66utoux0AAEEs6ejXejDK8F1oTE2N32E3DBLezLs3adKk1NF4kL0o8AEAAMCv1alTx3jB4JiuXbvaS8PfnP6ms2qViDDuN+9TQLV6f6qD9rqRd3k6/94PP/xgt/Adq2BnFe5Mr+cYbwp0p06dStcjkeE5kZviFz7m2fCcVmqM0y67HQAAQS1lg4aVMXwXGhOudl8F1xMwq1atUpUqVQyf9Xas38BTpkxJ7emH7EeBDwAAAH7rr7/+Ml40OGf69Ol2C/ifC1rYv7Rxv2UuxXXfO+sUhKPdwEO5Pf+ep8NzelOgs+bpc27P8JzIPbFaN/FeFXE6Jo0Jq6z2oxYwRyoAII+4qF8fKWb+TkyXUDUcuVAnfT+YRK7YvXu3WrZsafict2MV92bMmEFxLwdR4AMAAIDfevnll40XDs65fv263QJ+6fxijW3jq/n4QhUWXkyPLgrWKeuREU8LbH369NHFixftVr7j6fCgEydO9KhAd+nSJQ0YMCBN23r16mnnzp32EkAOu7RUz99fTQUcjkmXKdRSz/9+VEFy7xIAgAwkau93z6hFccN3YrqEqGyrp/T9CbtpAIuOjlaPHj0Mn/F2rJ591kNrPKCWsyjwAQAAwG81a9bMePHgmHvvvddeGn5t70S1r1LAuA+9T0FVbTdCC+kykifl9vx71rCfptdzzrJly+wW7i1dujTdPCYjR45kzhLknqPvqL7D8eg2Rbvoc8ZNBgDkIZe2faTuHg/TWUbPbAjsgldcXJyGDx9u+Gy306RJk9Sh6Snu5TwKfAAAAPBLGzZsMF48OOftt9+2W8C/Xdf+z7qqUpFQ4370PgXVaMgsHbXXjrxj9uzZhuMhfRYsWGC38K1JkyYZX88xrVq10tGjGR+dsbGx6tu3b5q2VvHSOv8BuSX2x56eDc9ppehgrbfbAQCQJ8T9qSGVDd+JxoTr3o8O2w0DjzXU5uTJkw2f63Zat27NyBO5iAIfAAAA/NJbb71lvIBwzunTp+0W8HsJu/X1I5WM+zFzKaoHvmRouLzE6pFn9cwzHw+3Yz1FvHfvXruVb7355pvG13RM//79dfmy+5kirSecv/zyy3RtX3jhBXrvIRfFaPn41irsdFy6SlibT3nQwknytfM6vHWT/l2zWqtX386aNVt05PxVJdvL5YSUq2d0eNvfWuPwPqys3bBFe6PjcvS9APCVJMWf2actG9am+btevXqN1uw8oUsJOdmDKllXTu3X5jVrnN7Lv9q49ZDOXQvW3lxH9UY18/di+oSq0ahFig7ATWEV96ZMmZJupAnHWA+qnTgRBGOQBjAKfAAAAPBL1tCbposIx1hDeCLAxPyqoU0KGfen9wlTsZr3auLGBHvlCHZWj7euXbsajoW08aTAllnTp083vqZjRo8erYQE98fl7t27UwuRju2s/9/670CuufKPJvet59n8ezdS+cXlirWb5lWXjmzSwm/e1QtP9FS7u5qr2R2N1aB+AzWqH6VQh20VWaW+GjZpqjub36PuA1/UtB/X6NAl35fYEk9v1vyPXtRjHZqqcYO6qlu3rqLCHPZboapq1LCBGjRqoqZ3tlDrx17VN0u26DhPywD+Kfms9v8zT9MnjtDjXVurZfOmatLoxt9ww0aqHunwtx1aXLXrN9Idze5Ui/YPacirn2v+xhOKt1fjO1d1eO1cTX62t+65o5Hq3zjH1K1WWCG33ke+UBWr20gNrfPgHc3UvGVHDXlnrlbuirHbB4PLWvRU6dvb3m1CVLnzeC08YzcNENaDaHPmzHFb3LOG7Tx//rzdArmFAh8AAAD8zq5du4wXEc4ZO3as3QKB5NKKF9S0RIhxn3qfcFW+/yWtvGqvHEFtz549atSokeE4SJtp06bZLXzPejLd9JqOsXr5uRMdHa0ePXqkaWPdQLFupDB3CXLV4Q91T/60x7PLhNXSwO92Ky/2N026cEBr5r6r4X3aqkHNKirnWEDzNGEVVL1eUz308jdaeeCivebMu354uT4b1Uut61RUmeLh5td0kagyFVXt7n56dc5/OscpCPAD13V211J9PeEpPXh3XdWo5GkxKW0KVqqpBq0H6K0f1+t4lit9cdo+f4qe7NpcNcqXUjHD67lMSAmVrVRLHZ56R7/vvWKvL5Bd1+6vB6m+p9+Xoc00cVtg9ZletWqVqlSpYv48NzJhwgTFx/u+fAzvUeADAACA3/nggw+MFxLOYaz/QHVRG169Q+GGfZq5FNTdE/7VBXvtCF7WvHrmYyBtli1bZrfwvVOnTqljx47G170V66aHq0Kd1bNw2LBh6dpYT0HHxcXZSwG54/ry/opyOjZdpmR3fb4vj93cu7xXCyb2UdN61VTKtE0ylWIqV6W2ur6xWAczc987KUab5rysbrUiDOv2LuHFy6tmx1e16ASDdwK5I1ln//teL3ZqotqVI41/p5lKqQqqVv8xffTPSWVm3Itrx1bri+FtVSHEsG6vUlglK9VR32lrA7z3d4rOrJ6iHlVMn9GUCD3wW+A8DrNjxw61bNnS8DluPpD27rvvMpy8H6HABwAAAL/TpUsX4wWFY2rXrm0vjYAU96/eerC6Igz7NnMpqR7fnbJXjmA1adIkw75Pm1atWuno0eybFcwq3E2dOtX42rfSq1ev1OFEnR06dCj135yXt3rzWb36gNyVouPT7/N4eM585Z7QomDoiOGROO35Y4qG3F/f4/kJvU9RNew0RB/+HXNjT3goZrFebFFPVUqb1pf5FLzjGc3el2i/CIAccXaz5r72mNrU8K4Hrlcpf6d6Pvedtno8inmyDn7/hJrWrqiipvVlOiXUdvwinQrkHsMxv2pITdNnMyVEzSYFxhDs1lDx7op7M2bMSJ2bD/6DAh8AAAD8inVjPjw84wvbZ5991m6BgHVqtvpWCzPu38ykaMO++mgnkwgFK2sYoKFDhxr3vWM8mf8uq06cOKH27dsbX9+KdQPkvffeSy3axcTEaO3atRo1apRKlCiRbllrTsHsLEgCHks8qgXPNVN+p2PUZcqM1Fa7aTBLubRbPz5/r2qVL+Ywx1R2JUTFK9ZXtw+3ZdzL5syvGlK3nCIzMzyoBwlvMEzzmJgPyAFJitn4hQbfUV1lipj/Hn2a/CVVtckgzT6SUXUtWfum91CNUgXN68lyCuue11crcGdw26EJDUyfy5QQNRj6k475eUHTNIT8rVi/YefOnctQ8n6IAh8AAAD8yldffWW8qHCONQ8WAl2yYn4fproFzfvY+4Sp1uMztCt7azvIJefOnVOnTp0M+z1t5s2bZ7fIXhnNTeJJ+vbtm1osBPzCuSUa5XFvhHwK7/CVTttNg9Xl3Qv0Rs/aCjN8fnPCVCiqnKrWa6Y2N85XnTq1VtO6FRVV0Lt5ZyOiaqjDu5tdF/lOz9OQRuUVmcFweaEFiqvKHfennjut3HtnfVUrX8LjXpoFWryqf5hiCcg+yWe1adbz6lDB/DdoSkhEYZWsUEMNWrRL/bvucFdj1Sxb1POHM1JTQKXrPqxvD7kq1ljFvZ6qXSq/oa1jbpzzStVUS/sc0+n+1rqjThWVLe7pA3wl1OWTvQrMRwmiNa2h6TOZU6PXO/rrjP8Wx1wNIW/F+r27ePFinxb3Dhw4oD59+uj+++//Xz7++GP7X+ENCnwAAADwK9YNb9OFhWMqVKhgL42Al3JcC15o4cMhz4qo3XvbxcAxwceTAp/Vqy6nCmbJycmaM2eOsVeeJ3n55ZdTb6YAfuPgp2oXbj5eTakw8k9dtJsGnxSdXvyqHmlZMYNee/lV4+4eGjr+fX09/2/tPHxc0WdjdfHyFcVfvaqrV+N05fJFnY85oH9//URjH2vicXEtPKqWOkzdkf7G9+lf9NQdFVTI0OZmQlSm7bP6YMFm7TsZq0vxCboaf0Vx8fGKv3JZF2PP6cTONfrlwxfVq0YG8/blr6z2zy3UWfulAfhQ4gHNGd1djaIMf3uOKVJfbR8epQkfzdKi9Xt15OQZnYu9pMtx8TfOMVcVH3dFly6cU/TuVZr73ij1rhZqXk+6FFCZho/q+3Q/m5K0d3pP1XNX3Iuopgdf+lLLtx1S9IXLunrtxvu4EnfjvGef884e0Zbl32vysx1ULoMHEQrXeVBvrQvEJwni9Ee/YsbPZEzRB/TJLv8sZVpzQFtzQZved506dbRy5Uqf99yzHtZ1fq3Zs2fb/wpvUOADAACA37Bu4BcvXjzdj33nDBo0yG6BoHBpmZ5rnNETwp6nQLkm6vfjGXvlCBZJSUmaMmWKcZ9bsZ4utnrV5bQtW7aoW7duxvdkSvPmzbVs2bLUAiHgT1L+HarShmPWnJLq9vl2XbPbBpcUnV4yQQ/VL2r43LdSULVbP6RnP1+t4xeuet77JOmsVk7qpfpFPevRF1axo8YscSivXduiD/o2UBHDslZCyrXTiK/W6EicJzdiE3Xp8N+aNaqNyhjW9b+U7a4Ptlyy2wDwiev7Nff5+1Utv+Fv7laKN1T7fi9r9uZoXUrwtLiSoutHftOLHaupoGmd6VJQdR6aog1xdvMbYleMV+dqrn6XR6hWt3H6YdPpjIcRviEl4bx2L/tYA+9wN8xnuGoN+l4HAm4Ejuva/HZjw+dxldJ6cpn/fWta8+lNnjzZ8H7zqUmTJvr333/tJX1r5syZ6V7PGtIe3qPABwAAAL9hjevv/EPflN9++81ugWCRfHi6Opcw7+/MpPBdY7TwBAWUYGPNwzdp0qR0veasAptVaMstVrFu8+bNev7551OfdHZ8b1asOfl69uyZeo6znpIG/NGlH7p43LssX5nOent1tILvLJui039OVO/6hc2f20pIZfV4eab+PRp3Y+nMuKaNk7uoXpRnRb4SbcdrycEb543EE/rr3V6q5qKXZf7GA/XBymOeF10TYnVw+aca0aW+ShjW55hKTywWZy7AR67v1w8v3q+qEea/NysRDR7TW/O2KDqzRa/zS/R822qKNKw7XUIrq+fUtTp5/cbvrH3z9XL70i56LhfTvSO/0cYznj7SkKKrMTs0f/Jgta2ewYN8YY01/r9A+0ZJ1qEfBqmq6fMYE6p7vvKv/tBWce+TTz5J/Z3q/H5btmyZ+ts2O1gP7Y0bNy7N6zVq1Eh79uyxl4A3KPABAADAbzzxxBNpfuibUrRoUXtpBJcEbfv8MdV29ySzVymgBs/8rOOM1RmUrELf7t27U4t6Fy9e9LsJ/633Z/VIthIbG0tvPQSAZO37oL3nBb7K/fTdYf/6u/OFy5s+1YCGkebPnC9C5Zt00fM/H9DVLH/0i5r/eLkMhv+8lXDV6vu+Vs15Vs2LmP49n8LqPKP5MZ5+4aXowpaZGvdEVzUqYF5fulR5Ths4jQE+cEbL3+quqq6GQ46sqpa939KyU9ft5bPg6OfqWMzwGqZENtOQGRv1Sb86ijD9e75I3f36Wl3x9DyQdFqrP35ej3WsqlDj+pwTojvfP2I3Dhzn/v1Qj9QyfR5zGk3YlskHQ3zP+u1sDTVvKu61bt1ae/futZf0PWuI+v79+6d5zY4dOyomJsZeAt6gwAcAAAC/cO3aNVWsWDHND31TevfubbdA0Enap28GN8+wJ4HnKaHOnx7wmwtpAPBbiae09KUWLm7sGlLtGf15xW4bJFLOrtSEdq7m1IxQ1Y6jNWu77z701TUvq3NVz4endnWTPLRST03b4OkQmimK/uN53VnIvC6XKfGAPtzhn3NHAYEjUcfmPasmrv7+itRTr9cX6JAPans3ndUvw1q7H4I3TcIN/81KftUfPFN7Pe1NmLhf3w2o6WFh73aqDpirnJlF2YdO/qJhDTzrjW2lwXN/6oLdNLdZw9pbw9s7v8f7779f+/fvt5fKHkePHlWrVq3SvK5V8GNu6syhwAcAAAC/8Pvvv6f5ke8qM2bMsFsgKJ1foMFVzPs+Mwmv3lvTNgTZXWgA8LXYf/ROe3dzzjml+lhts5sGhxj9/FgVFzekC6hax1Gas89nd91vStqh9zuk7znhVQo00JPf7fZoLiyruHfq56dUJ8ywnoxS9j6N/+OwfLwFgDwlZf8nur+k4e/LStH66vnKYp3y8VNpV1a9pCahhtfzIsVajdGC4x523Uvao896lDOuJ6PU6P2+1pwJsMfyEv7W+Gahxs9jSq0B32m3H9SwXBX3unbtmlp8y27r1q1L13PQGrLTGroT3qPABwAAAL8wYsSIND/yTQkNDfW7ofjge2dXvq52UeZjwPuEqtR9b+nv8/bKAQDppBz/WY95OpSblWqv65DdNvAlaMMb96iI6XPmC1GJZv311e7sGO/5uv4akrkb4bdS4M5J2m2vLSMXFj6tuq6GBcwoYbX15NzdzMMHZFbsQj1TP8L89xVeQfeOmKcT2XGJEztbXQoaXtPjRKnrt9H2yjJyVN/0qmBYh2cp1HKslhwNtMcI9mlKC88LfPmbvqBFnhZLs4k1xL01v57ze+vbt69OnMiZPpQzZ85M9/rTpk2z/xXeosAHAAAAv1CnTp10P/Sd07lzZ3tpBLdL+mdKL1XL7I3IdCmkhmPWien4AMAsafv7auVFL4+QZh8E3lBqLsRv+0Adi5o+Z5giy9bVsMUX7SV9b/fLlQ2v62HK9dDH2+LtNWXg5C8a0czV3IKeJFz3zdopBk8DMuO8Vr98h8JNf1sRxVSpxRvalF11raQV6udi7s6ME6LaT/6gwx79gE7S7un9VDMrv92jBmrJEU/HAfUXV/T9PZ4X+PKFt9cXu3KviGkV8Hr06JHufVnDY+bU/HfWtBwjR45M9x4WLFhgLwFvUeADAABArvvrr7/S/cg35f3337dbIOhdX6sX6pRV4cwMJWZKaA0NmH3MXjkAwFHiujGqaTp3ukiFEYsVa7cNbNH6qkNpF0NzVlS/OSft5bLHzvHVDa/rWSoNWShPS4+nv2irMlkapq+Yes7eRQ8+IDN2TlAjF0W2sAajtSz7niG4cXJfof7Fza+dYUKb6LUNnhajdujVRl4M82xKlWEB2IPvsn7o5KJnpjHVNWZl7kwdEB0dbSzuDRkyROfP59xQJ4cPH07Xg9AartMathOZQ4EPAAAAue7ll19O8yPfVc6ePWu3QF6QcuJ7PVrRfCxkKhUe1nd7r9lrBwDcEv9DO4WZzpsuUnn0n7pgtw1cido9vadKGz5fvnzF1eqFX3XKXjK7ZLrAV+ZBfbrjqr2WDMTt1scPRJnX42lKtddrfx6nJzzgrSv/aGJrF71ny3fR26sv2Qtmk0wX+EJU88mfdNSjKdFSdH7tK2oeYVqP56n60Adafy7QpmK4qr+GezMsaUkN/D07K7pmcXFxGj58eLr3Y02RcflyzvbNtubTd34fzZo104EDB+wl4C0KfAAAAMh1TZs2TfdD3zmtW7e2l0ZecmreaLXK7JPH6RKhcp0+1X7uUAJAGpfm3KcI43nTnDumbJKH5SW/lRTzu56tb/p8ESrb9FH9cMZeMBttf7ma4fUzTnjz93TQXkdGEvfN0oAaXgwhZ0rxXprDM1aAlxJ08JuHVc70N1Woslo/91f294q9vtS7+VX/lyLqNtfTftpXtGFqFxcPS3ieKsNXysNBh/1Igja+1cT4eVylzuScHeA6Pj5eEyZMSPc+hg4dqmPHjuncuXPZEqun3sqVK/+XOXPmaPz48cZpObp27arY2OAYFyA3UOADAABArlq/fn26H/mmvPHGG3YL5C1n9cuAO1Uuv/m48Dqh5dVp8g7l7vT2AOBPUrTrvTZeFPiKqt+iIwq0gdTSuqqVo1qqmPHzlddjP5y6sVWyW6LWDPOm54edqOZ6auZRex0Zi/3j6SzfeM9X8Tlt9qOONWfOnNEnn3yitm3bpr6/KlWq6Mknn9TWrVuVkhJoPYAQtGJ+0IB6BdL/Pd1IaP3n9VdOdOS6+JMejEz/+u4TovLtX9Bij7tpH9GMLubP6XlCdcfU4/b6Ask1bZzUTCHGz2TOHe/n3JQBiYmJmjx5svF9+FOsYqNViETmUOADAABArpo4caLxh75z9u7da7dAnhO3SiOqmY+LTKXYPRr3Z85MJA8A/i9Jm99pqwKm86UxJTVg4SEl2K0DUXLMN7rP+OBIETXq96kO28tlr6P6tncZw3vIINUG6PtDHo2bl+rMb1ks8OWvpV6TtvjF8JzWzWqrF4hV0DO9V2seJ6vwZy0H5K7r2jOxobnwU7qVhv2aM72VkrdO1r0FDO/BbSJ0x/NL5HEn5uT9+iKLBb6idzyhr4/Y6wsoydr/1f1e9YCv9/ouu232sh52sM6X1nnR9D78KW+++ab9rpEZFPgAAACQq9q0aWP8oe+YJk2a2Esjr7q6/VP1LGc+PrxPiMKKPqRfzvOUPwBYN6LXTbhL4cbzpSGVu2ni0hPyvMTkb65q1Zi2KmX6bPmqavhfV+zlslfS8SV6tUNpw3twn5DmH8ibfi6xi4argmE9Hieqt370g3mxrKLdlClTMrxZbf370qVL7VZALon5SU/dUdh4jIbd+bZ25sgTEle1d+5wNfN6FIxC6v6zN/OyHdG3PVzMM+hhqo1YpZw58/pais78PVZVDZ/JVeo8u1jZ3XnTKu6tWLHC5cMQ/pbZs2fb7xyZQYEPAAAAuWbnzp3GH/nOGTNmjN0CedmRad1Vp4j5GPE64WXVYtCPOmmvGwDyrMvb9c3gBgo1nStNqT5IPx4P3P57KTFfqU244XPlK6ZGj+RU7z3p6pZP9Fi9gob34T6VR2/0apjp5IOzNLxFMeO6MkyhWuo+YatfDGs9d+5cj3uiDBo0SHFx2T67GeBCkna/Vtt4bIaUuVtD5uXUXGPn9dfErqoUkv59uE3InXrfq9508dr8UT/VjTCsy4MUv+MxfRGIo3OmStLpNd4U+ELUaPSf2V7gW7VqVcAU96ysXr3afufIDAp8AAAAyDXTpk0z/sh3zj///GO3QJ6WfEIze9dQSa+HGnKR8Jp69LP9OTDPEgD4r5Qzf+ujAY09HmIspMnzWpoTc0dli2vaPK2vaoaZPlsVPb34XI59J0R/08mrYd1SU66tRs87Za/BQ8nnNOfBTAzRFl5UFe96S1v8YLLFU6dOqWPHjub3aYi1bEwMQ3Ejl8Qu06sdyxqPzdCmr2tzjnVV26W3G6V/D+4ToRoPvqFVl+xVeCjhwHtqYTyvuk/+EtX04IyjATw3trcFvuzvwbd79261bNnS+Nr+mEaNGmnPnj32u0dmUOADAABArnnggQeMP/QdU6NGDXtpwLoRvUTPVDcfK5lKgTaauueavXYAyHuSTq/RS17McxrYBb4DmtQ4xPi58lUcpU059sRHolb0L25+H24S2vBZLTju/eCoSRvGqF35MOM6jQkrrIqtJ2itlzf5s8uCBQvM79NF2rVrp5Mn6aOP3JH0j6thcUPU5L2j9lI5IPY7dTD2VnaXIrr3zbXyflTey/r9iWaKMq7TnIji1dTjs926aq8hUJ1b+4EeqR1q/IymVHnkK+3OpiJvdHS0evToYXxdfw3n66yjwAcAAIBcceTIEYWFZXyz6ZlnnrFbADfFrXlN7UuajxevE1pElZu9pNWM5AUgj7J68I2pYjg/ukggF/hSTn2p+4y9wEuq7bhlumAvl+0Sj+mLTt7PWRV6zwyds1fhnRSd/OlJNS/jQZEvooyaPv6ZNl3wn/7tb775pvm9ukifPn108WLAVqER0JK0441GxuMytHIPvfdfzg1vfPW/CWoamv59uE8RPfJnJrvtJu3SZz3rq5gHQ4IWqtxKI+buU7zdNJAlRi/VC3d4/gBFjR5vacnRRLu1b1lz2Zle05/Tv39/Xb7szZyPcEaBDwAAALniyy+/NP7Id87vv/9utwBuSdDmdzupan7zMeN1Qsuq9dMLA3RyfwDImpRTizWklOHc6CKBW+C7qt2zh+nOgobPFdpck3bmXG/uxIM/aXiTAunfRwapP2FnloYQTTmxQK/2qKtSRQsqf8HI1DntihQupIIF8iuiWBU17TlGX/11QJf8bLw8bwt8M2bMsFsCOezCBn3yaG2FGI7LIt2+0SnvO+BmUpy2fP6Iqhveh9uEd9BXp+1VZMp17flmlDpULqHC+fOrYOEb55gb55nIQgVVIH8Blax5lx57Y47WHY8PniHyEzdpUlsvzucl+2vhoez5vpk0aZL5Nf04o0ePVkJC4M7r6w8o8AEAACBXWE9Xm37kO6Zs2bL20oCTq/s049GqKuzBU8IeJaKJnl8SzXx8APKc61vfUwtvzqX1RmhJQBb44rX1yyfUyPBwSGS1IVqXg18AMT/382oou9SUaKvxy33TxzAlPloH9u7Sjh07tGP7dm3fd0SnLmdPjxJf8OamddeuXXX6dJYqFEDmnV+td3tWS39shhZXvbcP2wvlgJT9+qRdRPr34Tahqtxzqrb4pNaSpMvH92vPzhvnmBvnme3bd+rAsTOKD9zJ9lxL2qzJ7QsatqeLFH1UCw9mT4HP24ch/CHWnPzIGgp8AAAAyHFnz55VsWLFjD/yHWMN2QG4krhvlp6sn9947GQqke31yeFgvPMAAK5dXf+mGpvOia7ScIqO220DTuxvGlCrjCLDwlKHCQ8LK6RS1dpoyAcbcnQeqE2DM/4N5JyIO1/WXzF58ztq+fLlqb2ATNvFMVWqVNGqVavsVkBuSNGR6Z1UtUQB+xwTpvAiZVX7gec1Y38O/v0m/KoOYea/E9eJUudp28RgiV6iwJelWHOsImso8AEAACDHzZkzx/gD3zkzZ860WwBmF35/Ug1Mw61lKsXU+LHPtSfHhk8CgNx3dZ2XBb5mH+qU3TYgJSXoyvnzOp+aS4pPyOmi2Sl92d7bnjX5FNFxps7ba8hr4uLiNHz4cON2uZU6depo5cqVSkmhLz5yX+LVS/Y55rxiL1/V9Rw+LJN3vK76hr8T9ympQSsyOf9eXkaBL0tZu3at/e6RWRT4AAAAkOMGDRpk/IHvmMjISHtpwJ04rZvYRqVDzceR1wmrpUc+3hQUk/4DgCe8LfCF3PmBTtpt4b3EI/M0vFG4cdu6S93Xd9pryJusQomrIt+AAQN05MgRe0k/k3xKO/+erx9/mKPZs2eTXMkczf3xZ63ZE23vlGAXp+1fPKzKhr8Vtwlvpy8Z3dZ7flTgQ95EgQ8AAAA56urVq6pQoYL5gschPXv2tFsAGYj9V2+3zXjoLo9ToLle+5cSH4C8gQJfzor+pb/KGLar2xRsrheXBeTEhz6VnJys3bt369NPP9XkyZNTR4Q4duyY//bai9+hb4fcoShfzRdMMp/I6qpVr7EGfbVdV+zdE7RS9umzjoXM28FNStz/rrbQgc97FPiQyyjwAQAAIEdZ4+wbL3ac8tlnn9ktgIxdXTdB9xQxH0vep6CqdRyr1XH2ygEgiFHgy0kpWjc4yrhd3aXQXeO0PJo5YgNLina+2Vhhhv1JcjEh1TXsryAvrsT/pI7hhs/uNqXVZepm8RhBJmSmwHc4wW4MZB0FPgAAAOSoZ5991nyx45QLFy7YLQDPnP35cVUNMx9PXqfQ3Xprc6K9ZgAIXhT4ctJpTW8datyu7hLZfW6enX8vcB3WN33LG/cnyc0U1j2vLNfJIO6plrJzvGoaP7u7lNfTK+m+lyneFvgKdtdPe6/ajYGso8AHAACAHFW7dm3zxY5DOnbsaC8NeCHpiH559g5FGo4pr1OslSZu4OlaAMGPAl/OSTz2q4bVCzFuV3ep+/ouew0IHCc0q08Z4/4kuZmCajXhH50L2g6x8dr9ZR9VMH52Nwm7V1/mlSkKfc3bAl+hnpq3nyE64TsU+AAAAJBjVqxYYb7QccqUKVPsFoB3Uo79olH3lDIeV56nkJoMna39dOADkAdQ4Ms5p395QpUN29RtwhroueWX7TUgkBz7vIOKmfYpyb0Uaqm3tgfxcLfJezW9SzHzZ3eTyDbvaAu/ezMnM0N0HuIhQvgOBT4AAADkmLFjx5ovdJxy8OBBuwXgvbgVz6lepofqLKhKdw/XYkaIBZBHUODLKcla82RJ4zZ1l6Ktx2np6RR7HQgoKbH6e8qDqlvM+16bxLcpWK6x7urQXW+tPHfjLzGIXf5BnfObt4HrlFf399cz/15mZabAd5AefPAdCnwAAADIMU2bNjVf6DjkrrvuspcGMuuiNrzXVWUNx1eGqfCIZnPnGkAeQoEvp0Tr46bmbeouUb1/Uqy9BgSiqzp7ZJs2bfhX//5LcivrN/6nw+fywLxnO8eokuE84j7VNHI1BadMo8CHXEaBDwAAADli/fr15oscp7z22mt2CyAL4rbo8341FW44xlymZFd9tJNJ7wHkLd4W+PI1/VCn7bbwXNLJ3/R0LcP2zCC1X99jrwEA3Lmq/V/2UhnDecRtwu7VVzH2KuA9CnzIZRT4AAAAkCMmTpxovshxyoYNG+wWQNYkb52o5lWLKcxwnKVL0bv1wm/HxSBoAPKaa+u9LPA1eEsH7Lbw3Klfn1atEMP2dJuaGrk8zl4DALiRtEdf9ipjOI+4T8Rdk7QtyV4HvEeBD7mMAh8AAAByRJs2bcwXOQ5p2LChvTTgG8dmPqLyhmMtTQrUU//PN+uy3QYA8pLE7VN1d6jh3Ogq9UdqCZM1eSlRq4aUNm9PN4lq87IWneTREwAeuDBHXQqYzyWuU0k93vuH+feyggIfchkFPgAAAGS7nTt3mi9wnPL888/bLQDfSNo2WfeEmY+31BSqrNYDf2C4OQB5VvKxX/VYMcP50UVCmjyvpdwN9tIZTatv3p7uUqbfLzpvrwEA3No+UqUM5xH3qaMX/o63V4BMSViviffkN2xbF6n4pBYeSrAbA1lHgQ8AAADZbtq0aeYLHKcsXrzYbgH4QMJWffRILUUYjrXUhJVUwwc/0Y5Ee3kAyIOSz6zRmCqGc6SLUODzXlL0fD1Zzbw93aXW63vtNQCAO9d06IvuKmE4j7hNWBvNOGevApmScPx3jWoSZt6+hlTv+Y5WnGBMVPgOBT4AAABkuwceeMB4geOYqlWr2ksDPpASrRWj6ynUcKz9LxUe0w903QOQxyWdpsCX3U4tGKUm+c3b03Uq69m/rtprAAA3Evfqm35VFWI8l7hOaLO3tYNRgLMgRWfXvqfu5c3b15Sqj32rA9ft5oAPUOADAABAtjpy5IjCwjJ+qnHIkCF2CyCrrmj7J71UKTLEeKylpmxPfb6b+S8AIDl6jcbVMZwnXaXhKC2OtRvDAwlaOayceVu6Sam2Y7WA+fcAeOLcXPUoZD6XuE4V9Xj3b+bfy5IknV4zVlWN29ecuiMWs83hUxT4AAAAkK2+/PJL48WNc37++We7BZA1l1a/pnYVI4zHWWpK3Kc311y2lwaAPC52oz7vX999j2fHVOuv7w8xZ5PnTuudTAzPWWnQPJ3JY/W9ixcvauPGjVq5cuX/snv3bsXHc7wBbm15SkUN5xG3CWmksX9fsleAzEn2usDXcPSfFPjgUxT4AAAAkK169+5tvLhxTKlSpeylgSw6PEXtKrkp7hVtoIc+Pm4vDABQyhVteP1OhZnOmaaU7ahXFx0TMwh55vqRWXq0gmE7ZpBaE/bbawhu165d05IlS9StWzfjdrBSpEgR9ezZU8uXL1diIhPnAmld0bb371MRw9+O24Teo6/P26tAJqUoetXzqmTavi5SZ+SyG3sM8B0KfAAAAMg2MTExKlq0qPHixjH9+vWzWwBZEPu7RtxZ2HiMpaZwdbV7ea2Y0QgAHCVp8zvtVNB03jSmqPotPCQGOfZEsg59P0zNi5m2o7tU0LOrE+x1BK8tW7a4LeyZYi2/Z88eew0AdO0/ffhoHeU3/L24TeO3tdteBTIrWXs+bev5AzI30vDDGLst4BsU+AAAAJBtZs+ebbywcc63335rtwAyKWGnPu5c3Hh8paZASdV46CsmtQeQKdZ8stOmTdOnn36qY8eO2f81WCRp48S7FWE6dxpTVP0WHRGnU09c0R/9owzb0H3Kthuj307aqwhCVi+8OXPmqEqVKsbPn1Hq1Kmj1atX22sD8riTX6pDuPlvxWVCq6vH26sZKjLLrmr9xCbmbWxMiJpOO2G3BXyDAh8AAACyzcCBAw0XNmlToEABXbnCQCXIgpRTmvNQlMLDQo3HWL6QEIXWeEHrmXYPN5w5c0affPKJ2rZtm3p8WDeYn3zySW3dulUpKXlswit45N9//1WTJrdv4HXq1Ennzp2z/zU4XPu1kxcFvnyq9+a/YlY0T2zRqPLmbegu1Z/8VaeCdCRKaz69CRMmGD+3N2nZsmXq/HxAXpew8CEVMvyNuE34nRq35rz41ZNV17XpLW8KfOFq9/VZuy3gGxT4AAAAkC2sGzjly5c3XNikTffu3e0WQGZc0+Z371PNqHDj8WUlpPoT+vFIsr088qqMeoxYczxZhT/md8It1txg33zzjUqUKJHmWAnGAt/VX+73qsBXceQiMXVTxhJPzFTvMuZt6C513zpkryFnxB9apo/emaBxY8dq7Msv6+U3Ptbs5ft00cdfne6Ke82bN9esWbN0/Pjx1L+vo0ePasiQIcZlb6Vv376KjY211w7kRVe1Y8q9XgyxbCe8vWZesFeRE1IuaOdv7+nt12+cY26cZ16+cZ6ZNP0n/XMs0B8VuaplQ8qat7ExVfTcCh5shW9R4AMAAEC2mD9/vuGiJn0+/vhjuwXgvZMzOqte6fzGYys1xVpr7Bpm3cvrrKLdlClTUot4xuPEjvXvS5cutVshr7J6cv73338u5wYLxgLf9VVDVc7wWV2lwojFysl7wzkiJfHGucKXFa1E7fpsoBoVNm9D1ymvYatzcADU5N36eOAdKub0PkLLtdOLPx/zWQ8f6zw8efLkNK9hxTrvvvfee4qLi7OXvG3Dhg0ZPiw2b948e2nA/yXf+DtI9GW3uStrNalnda/mgEtN47eVkzNZxv89Ub1qFXR6H/lVo8db+iuga/SX9X27MKfP5S7VNYbrEvgYBT4AAABki+HDhxsuatLHekIbyIzzf03QgzUKGI+r1ETeoaFLGJcT0ty5czMs7t3KoEGDjDeakTdY8+u9+OKLbo+XYCzwJW19R81DzJ/XmDpv64jdNmAlX9Khv3/SBy8OVu+O9+qeVnfr7rtbqVWrNnqgz2C9On2BdpxPshfOjPOa3TXSvP3cJLLpcP1yyl5FTvhvlMob3ke+8p30+pLTPivwrVixIl2xzuoda52fXQ2PfPLkSbVr1y5NG+eMHj1aCQkJdgvAvySe261lM9/RiAE91O7ee9Tq7hvnmVY3zjPtuumRYW/r2xUHdSUrf2QH3tOdoea/DdcppQ6vrdIlexXZ75r+6GU6F4ap9iMfal1ATwQYp9ltXEwRYErRRzX/aFa+V4D0KPABAAAgW9SqVct8YeOQ9u3b20sDXjoxTyObublxGlFV3T7cKm754dSpU+rYsaP5ODHEWjYmJsZujbwgOTlZO3bs0KhRo9INx2lKMBb4Uo7OVV9veppVn6DDdttAdGXLFxrUsI6qVXR3Y7aUarV6SB9szuQQckl/a2hZ03rdp/bT83Qsx0YKTtS+jzuqiOF95Ks+RAvO+OZG9IkTJ1J/8zmu3yqiW8Mmu5v71DoXZ3T+5pwNv5QSo5WTe6hBrSoqaThubyW0fAO1f+J7Hczkn9qlH7t5Pzxngbv06uqzOTf/Xty/Gt/EdK4N052v/quAru8lb9XE5p4X+Eq2n6Blp5g2AL5FgQ8AAAA+t3z5cuNFjXPeeecduwXghdg1eqNtMeMxlZqQIqo/7DedZCo13LBgwQLzceIiVm8Rq9cIgps1XOCRI0f04YcfqmXLlsZjwVWCscCn83/r3QfKGD+vMdVf1OYcuzvsW2f/ekMdSho+kzERKt/iUX110PsPe3XzZLUrYlqnu4TozndycOC8a5v0bu+aym94LxH3zZIvRs6z/tYmTpyYbv3WcJ0ZzXm6d+9eNWnSJF1bx1j/bi0H+I2kI/plRDMVMhyvxkRWU9un5+us3dxz57V0dCOFmtbpLpFdNTMHa+Kxf76s+8ob3ke+Ehr0V4D/WE/4W+ObeV7gq/PMAp3KwRGYkTdQ4AMAAIDPvfTSS8aLGudYcxwBXkk+oM86FzceT7dS5L4PtJWROWF78803jceJq/Tp00cXLwb08+RwcuXKFR0/flwrV65Mnfe1b9++HvXUc5WgLPBdPahfR92pCMPnNaba01oUcH8mKYr56zXdW8zwedymoFq8vFxnvKrxXdOGSb1UI79pfe4Spf6Lc25+puurnlEl4/sopc5T9/ikh8+2bdtUr169NOvv0aOHoqOj7SVcs9pmNCKEte6dO3faLYBclnhUvwxv5Pm59FZKdtb7/3k5aOb5RXqpfTnz+tyl5svakmMPaMRq7oPmh/JCq/XTnIxPA34t+dBsPVUvxPj50idEjcevF/U9+BoFPgAAAPjcHXfcYbioSZvmzZvbSwOeuqDf+tVSqQLmY8pK4UYD9NWBAO1WgmzhbYFvxowZdksEmvnz5+v+++9PjTUcYFaKeO4SlAU+JWjDm608vyld8WHN2BdYPS9Sjn6lrlGGz+JJyg7Ur970eEnZojE1Pb3p65DQuzR1V04N33ZOK19uZt7nlfvrh6NZ37/Xrl3TCy+8kGbd1tCcS5cutZdwz5Me2PTgg/9I1H9vtlQBw3HqSeq9/Le8GRD46qJ+Km1YT0aJ7D1bOTXNZ9Kxn/VEddP7CFOjF1YoJqB/sqfo7N/T1LeW6fOZc8eHp+22gO9Q4AMAAIBPrVu3znhB45zx48fbLQBPxGnTx4+pkbvhzop30OTNzLqHtCZNmmQ+Xgzp2rWrTp/m5kugmj17tnG/+jrBWeCTor/q4HmBr3xnvbn8pHwzQ1sOSNqhD/s2UFHTZ/EoZTT0Hy8Kbye+UudI03rcp8CdL2t5Th1ah6brAeN3apgqPPKHV4UGV6yedc6994YOHar4+IzXnpSUpHHjxqVpa0qrVq109OhRuxWQe66sHq/O1QoYj1OPUu8tHbTXlbFEbXvjDu+H58wXpc7TNvvk7ztj17XpjTsVZnofBWrr+Y2B/kBekvZ/+5BKmD6fMQXVfV6c3RbwHQp8AAAA8ClPe8usWrXKbgFkJEUnF76qThXdzHFRqLnGreGiGelZc4JaPUaMx41DqlSpwnkpwFHgy5rryx9XMcPnNaeoHvhiu3JuMMmsufbveDWJMH0OT1NIvRd5OrDade2d+ZQaej08Z7iavbhUp3OkanpOK8e76GlU+j69vtLLoQINUlJSNHXq1DTrts7F1jnZE6dOnVLHjh3TtDelf//+unyZcbmR285rweDKCjEcox6n/HPaaq8tQ5fXa1qvKub1uEvxjpqy+YJPht/NSNKxX/R0HVNP5jBV6/OhtgX8WJXXtfHNhobP5yp19eoGBuiE71HgAwAAgE/dc889hguatLGe5gY8dW3H1xrc0M0T0aGV1feL3QFzoxk5Ky4uTsOHDzcfO3bq1KmTOj+bdUMagSszBT5rGM9nn302dU7YCRMmGJdxTrAW+FJ2vaXGhs/rKpVfWK6sl4FyQrTmv3CPF70sTIlU3yWe3pg9qS86ZvxQQfoUUNtpe5UTA3Re/Wu4aoaa3kOISvf6SRfs5bLCVKDzphi3bNmyNG1dZdq0aXYLIPck7/tKTzQqZDxGPU6F57XdXl9GUra/pibhhnVklNIPa+4ZeyXZKkZzepUxv4fwqnp2TTAUui7r524FzZ/RkJAaT2vecX5nwvco8AEAAMBnduzYYbygcc6oUaPsFkAG4v/Rq83d3DAJKa8uk1YrOmDGiUNuOH/+vMsi34ABA3TkyBF7SQQyTwt8bdu2Te1tvmHDBiUk3B7W19Me6MFa4NOZ+Xqmtpue0k4JafGhTthN/dq1hXqotPkzeJ6KGrXew9LbpV/0kLvhpF2moLrO9UVpLQMJO/R5r/KG17+Rch31yl9X7AWzxlSg83SOU2vuvpEjR6Zr75xatWpp27Ztdisg98RMb6lIwzHqVe6YosP2+jJy7KNW5qEvM0rZIVqdA9OnXvz7Td1b1PD6+SJUs89UbQ+K3+2nNLWR6TOaEqI6T3yvvTkzNiryGAp8AAAA8BnnoZhcZeHChXYLwI2UvfrgvijjMXQzxdVi6DfaybR78EBycrJ2796tTz/9VJMnT9acOXN07Ngxeu0Fkfnz5+v+++9PjVXQtfbzrX29du1aRUdHpynoOcvzBb5re/T90CbKb/jMxpQd5flwcrnp8LtqZHr/3qRMb3133F6fW4naP2ugaoUY1pFhItV7cXb3aknW8e96q7zx/YWo3GPzddFeMiusv7PRo0enWX+TJk20d+9eewn3Dh8+rJYtW6Zpb8qgQYNSe2kDuStF64eXMx6jnidEtZ5Z7Fmv6LjNmtbNRe+4jFJhtLK9JJ64Xe+2KWZ+/fDaenFdDlQYc0Lyfxpf3/AZjQnRHa9tEgN0IjtQ4AMAAIDPdO7c2XBBkzaVKlWylwbcOa65g1qqTJj5OLLmKqp8/1gtyZFhhgDkBXm+wKfr2jr5XhU0fGZjSg/Q4gCorcSvGqdmxuEoPU2oaj8xWwc8uTObtFEvN3EzpLTbFFHfRdn7xMrlFS/ojgKm186n0Kq9NHWLb24/nzx5Uu3atUuzfm+KcVZPP8e2rjJv3jy7BZCbovXL4GrGY9TjFGquMUtOezQ33uWFA1Uts+e0yi9k84MZp/XD49VczEVYQA2f/E5HguW5qhM/6Ikaps9pSoTu+y4YfzfAH1DgAwAAgE9YT1uHhmY8tNfgwYPtFoArl/Tv+z1UyeXNi3CVqH2/PtjFuJwAfIcCn3RlXg/Ph5kr1lHvb/X/Wfji17yili4fFvEkFTT4T0/GVUvR+RXPqrpxHZ6ksHovzr4CX9KR3/R8S1dzA4ap7vOrdc1eNqvWrVunIkXSvtb06dPtf3XPKgJaxUDHtqZYPfys355A7jujX4fUMh6nnia8/iva4knhK+mkZvcuYVyHR6nwfDb24LuqHd8OUt0Iw+taiWytKbuDpbqXrNPL31a3yobPaUwFjfiH6xZkDwp8AAAA8IkvvvjCcDGTPj/88IPdAjBJ0tEFL+mekm6KxQXu1ISNDHIDwLco8N2w40VVMnxmc8qq1xfbddVu6q+yVuCLVJOnvtE+T6bfS/pPb7YualiHpymgLj9etlfmYxc365O+1VwOv1quzwwd9GFtcefOnapXr97/1m8V+6yinyc2b96s8uVdzBHokHHjxikpiRvm8AdZLPCVulcvzT9tr8u9y38OU31XBTRPUvpprfVwOlHvJCt6xRvqWDrM/LphdTVsQfSNpYJFgrZ/2kvlTZ/VlKjemnXMbgr4GAU+AAAA+ETv3r3NFzQOiYqK0tWr/n4rELkpbtcX6ls1wnj8pCasnob9djKIbhAA8BcU+G44v0jDqpg/tyllhy/Webupv4pfPV53Zmo4u0Kq1u5pzfVoPLlrOvBtb5U2rsfThKnZhE3yeckq8YyWjLtHJY2vmU9Fmjyhz/f7tldNYmJiaqFu5cqVqbH+b+u/ZcSaE9WT+ZytguHy5cvtVkBui9a8J2sYj9UMU7yeur281LPz6KUtmtymkHk9nqbIA5qeDR1frx6co6cbRZpfM19ptRk9T8E1qv5F/dLXVY9o54SkDvO8nznDkU0o8AEAACDLYmJiVLRoxk+tP/zww3YLIL2ko3M0qG5B47GTmrDq6vnOGgXAlE8AAhAFvhsSj2jB6Ds9nocvpNl7OmQ39VcpW99QkxDz+3ed8mrSZajmHvSs3Jaw6zP1rJbfsB7vUv6Bt7TGl6OeXj+jJS+3clnciyh/t576+aS9cO47e/asR/M59+rVS7GxsXYrILfFa9nTlYzHqruEV22ph17508PC1xX9/UYblcnSfKI3El5bj322Q74cB+Pqwdl6qqGr4l4hVe84Tiv9fzRnL+3XK9VMn9eUULWYetij+RWBzKDABwAAgCybPXu24WImfWbMmGG3AJwk7dB7nUobj5vUhJRVmxFzdZiuewCyCQU+S7IOf95JhQ2f25iiA7TK38/LV+aobX7DezcltIwq126pgVMWaq+no2XGrdG4Vi4ecgorpzbDHtKdFULM/+6cQjU04E/fjHSQdG6Lvhl+t0q5KG6GR5ZSg5fX+/RGf1ZZvfKc5+4zxerlZ/X2A/zF8Um1FGI4Vk0pWK6a6nV4VtNXHfN43sszvz7lcmjOAtW7aNgDDVwW8tMmRMUajdM2n/z5JOjk6g/0WMPChtexEqEiZdvqo4NB+Ld64Xc9Ucn0mU0pqD5/cQGD7EOBDwAAAFk2cOBAw8VM2oSHh+vkSf95Shx+JOWQvn20ipsbI0VU875XtIKH9QFkIwp8NyWvfUqlDJ/bmCKd9OFuP795m7xdk7rXVVHT+/9fIlWy0p3q/+4CbYn2ouQVt1pjXRb3Cqp4haFamRCrHfPHq31pwzKGFL97tH7zbDouly5umqHh95RTAcP6rYQXilK9kX/Kn75WExISNHr0aOP7dUytWrW0bds2uxXgH+JXjFD7KgWMx+ytRBQprar3DtPny/bovBenzTO/PKX6Lh5SCI8sqUZv7tL10+s165mmnj2cEVJBD0xcoyzN+Jl8Wn9NfVxNSriYcy9fhAqXbK23NgXn1AyxG6boAQ/P6fmK9NDME3ZDIBtQ4AMAAECWxMfHq3z58uYLGod06dLFbgE4OqeVr9ylQoZjJjUhESpU7H59d9ZeHACyCQU+27kf1aeY+bOnS8GmGjZ3v1/1AksvRcfmDlQ10/u/laguevefs97Nf3dhuV5yVdyzUqKbph+4Ne/cFS19pqUqFDAsly4hKtxhqrZctJt6IeXacf314WOqFW5a782EFyyqeqOW+lVxz3L48GG1bNnS+J4dM2jQIMXFMVg3/EzCDn3UpYTxmL2Vmv2/0q5L3j0QcXzuky6Le1aqDp6n07dWeWqmejUupXDDcukSUl6PzN4v78tvSYrbt0BvPlDO9YN51m/34vdo0n/BOu96grZ/8rCqhxk+e7qEqf5Ts7WP+feQjSjwAQAAIEvmz59vuJhJnw8++MBuAdySqBO/PqvGJSOMx0xq8t+liUF7gwCAP6HAZ0vcp++GNlMRw2dPn+Jq9sQPirab+q3LizWkaXk3cwtGqGrn5/Th/G2Kzej+e8JJ/fvNC3qgupveOsXu0bg/z9sNbNc2aEytQsrv0U3hfAqp9ri+2+XJAH4pSriwV0s+Hq77ahRXhGFdtxJRMFJ1/bC4Z/F0uHdrOcAfnfimu+q5+01buL76jvtSS/dnXKC+cmi5Pnq6tcq5OV9UeHCqNjmdIi79/rhKFYxQmGH59MmvO0b/ruOejB6ZfFUxW+bpnQF3q0IRV732biQ8vwoWvkeTtgTzb/dzmt3NfW/N28mv+2acZv49ZCsKfAAAAMiS4cOHGy5m0mfXrl12C8CSokvLnlP9UvmNx0tq8jfSsB+P28sDQPaiwHdLoo589aCiDJ/dmArPaYvd0n+lKPr3p1XD9P7/lxCFhISrWNUW6v3iJ5q96B9t2XNER48eTc2uv3/Vx6N76c4KBW8s52ZOvWLN9fRsF2NsxvyuIVUNbVwkJH+UqrZ9Su9/t0CrN+3SIfu9HD20S5tWL9B3057XI/fWUomI0BvvybyOmwlV0cpN9fhHa/2yuGf1yLN65pnf++1YPfysnn6AX0o8qK96lDIeu//LjXNHSP6SqnXvAL3+xU9aum6b9t/6uz66VSvmTtbQzg1UKsI6HxnapyZE5TqM1fIr9uumkaTDM7w4f984NxQqXU9dnrPPeXtvn/MO7NigFb98pUnDe6hFlaIKC81gLtH8JVTj7mc1c3uQP5iXvEZPlDB8fmOqa9xuux2QTSjwAQAAIEusuVDMFzS3c++999pLAzelHJyhvo2jXA/vk7+eBn19xF4aALIfBT4Hh17yfB6+iDb6OCBO15e0+Pk2Hn6ucBUoXFxRJUurTLkKKlcqSkUjCxqWc0pUG41dcEjuRmNL2DBJXcqHK8zDnnxWQgtEqlhUSZUqU04VKpRTmVIlFVWssAq5GYrzdvKrwt0D9PE/5/y2F4k1p54nvyetOfqsufoAv3XiOw1uUth4/KZLREEVKV5CpUqXVfkKZVWyeBFFZjiMb4gqdp+ildHuut3FauGLrVQsPEyhxnWYEpF6zitx45xX9sY5r3zZ0ipV4sZ5r3BBN3NkO6RwDd03Ypa2G4uOwSV+76fqEmXYBukSpmrdJmhVliY7BDJGgQ8AAACZtmzZMsPFTPq89dZbdgvghsR1Gt+xvOubDuHldffTv+qMvTgA5AQKfA6u/aNxD1RTfsPnT5fQ+nr6p4N+Pg+fLXGHPujZQMVMnyMrCQ1TeKm2GrvMwzu5MUs0sq5V5As1r88nCVd4eH7VGzRDmy/Yr+uHUlJSNHXqVMP7T5siRYpo+fLldivAf11ZPV4dqxcyHseZT+iN80W4qvZ8V1s9miw0SYdmPazyXhX5MpHwG+eZonfp+V/2ZmI+v0B0Xbu+GKw7ihi2RboU0r2Tt4j6HrIbBT4AAABk2pgxYwwXM+mzYcMGuwXyvMRtmtarsuungUMjVb71R6LvHoCcRoHP0SVtef9+z4Z5CymvNs/8oFN2S7+XdFi/PN9WZayh8kyfx9sULKO6D76u+Yc9uut+W/xe/Ty2o+oU93WRL1ShYYVUo/MLmrnpnLx8Vznu7Nmz6ty5s+FzpI21jLUsEAjit32pJ+4o6n44X48TqsIVm6j/tL/k7V/Ahc0zNLR1VUUa15uFhIYprHgj9XnzN+25nJdmmDur2d09Ld4WUs/fPZlHFcgaCnwAAADItCZNmhguZtKmadOm9tJArJaPrO36hmpIIZVr/apWnmcq+kATv/AJ9Wh7h5o1b5E6R5KVJrUrqU738ZofbS+UzS5evKiNGzdq5cqV/8vu3bsVHx9vLwG4R4EvrZT1T6uk4fMbU2GkNgXUqTtZJxdP1qONK6hwaGYLfSEKLddBL/2clZ4riTqzcbbGdqutUoVCs1hwvPF+woqq3oNjNGP1MbfDhPoTq1ee1TvP/Jlux+rlZ/X2AwJGwl79NL6b6pS25u00H9cZJSQkv2r2mqQ/jyfaK82Eq0e18vNhalu5uPJnseAYEhqqsFLN1O/NH7Upxt0woUEqaaUGFDNvG+dENR+iBf446SmCDgU+AAAAZMq///5rvJhxztixY+0WyNsStX1CY0UWCDceJ1ZCSjyor/Yxt07ASYnRrG6mm7MhqtzvW2XnLr127ZqWLFmibt26GV7/Zqwbxz179ky9iZyYmIUbZAh6FPicXPtbL7Qp7VnRKay1PjoaiMWXJJ1e853eGNRGVQqFKdwabi48QhH5IwyfM1T5I8IUGhqqiKpd9Mr363XKZ50zritm+0J9+mIftaxUKHUovvCwMPfb3hoWNPX9Flbp6q31+OsztebQJQXSLfekpCSNGzfO/PkcUr58eW3evNluBQSYawe16POX9PCdZRVh/W1bf7cR+VUg1HC83/jv4WGhN84zkar/6Dv6bbvveuGmXD2hjT+/p+FdG6tM/pvnjzDTe3BIqP1+8xctpzodn9a7v2zSyfi8W2iP++9dtS9s3lZpU0h3jf9LMTyTgBxAgQ8AAACZ8sYbbxguZtJnxYoVdgvkXSk68dMQtahY0HiMpKZEe72+0o8nCYJLCVs/VJ/qYYb9Wli9snFooi1btrgt7JliLb9nzx57DUBaFPicXdKm9x9QKcM2SJ/K6vXhRl2xWwaixCsxOrp7o/767Xt9++VnmvbO6xr3wgg9P/Y1TZgwQW+997G+mj1Py7cd16XsfFYgIVbH9mzSyvkz9eHYgerc/p7/9YxOzd336r6eQ/XG53O1aO02HTx9SdcD9Cby4cOHUz+T+Zi6nUGDBikuLs5uBQSolARdjD6sHf8u1c+zvtYXn7yvt14bq9EjX9C4G+eYCRMmaepn32ju/DXaHR2XjcX6FF2NOayd65fplxnv6rlH7le71g7nmBtp3e5+PfzcZM34ZanW7TyimDh/H+w3J8Rp/ft9VTvCfJ5Km9p64W8eWkTOoMAHAACATGndurXhYiZtateubS+NvCxh+6ca2CzKeIykJrSaHvnuhL00Astl/da7mHG/htd8VF8fsxfzIasX3pw5c1SlShXj62aUOnXqaPXq1fbagNso8KWXsmmkKhi2gSlhLadod9D0VkhJHQ4yJTlJydb/piSn/m/Os95DohISEm7nuvWe7H8OcLNnzzYeS86ZMWOG3QIIIqnnlhQlJyXb5xvrf+1/y0k3zm9JiQ7nmBtJtN6T/c+45ajea+rZnKnFW4/RX4H8xAsCCgU+AAAAeG379u3GixnnPPvss3YL5Fmnvtez95Q1Hh83U1x3TtjBTYQAlXxivobVNd/sqDVkno75+IFvaz49qyeN6fW8ifV0ujU/H+CIAp9BwmqNbJrx/GipCW+rr3Jozk0EPqtHntUzz3gsOcQ6X1s9/QAgN6Uc+0IdC5rPU2lTVO0nb9Ilux2Q3SjwAQAAwGvvv/++4WImfRYsWGC3QJ6UsFdf9i5vPDZupriaj56vE0yLFqCStPXtFgo37tsienixb4fndFfca968uWbNmqXjx4+nFl6OHj2qIUOGGJe9lb59+yo2NtZeO0CBzyxeOz7t7uEwnVU06BcqfPDMtm3bVKtWLcNxlDYjR45MnW81I1bvbmuePqu336effqq///479XsDALIuQbu+HqDaGcxZmJpQa05auxmQAyjwAQAAwGvWzU3jBY1Dypcvn3qzBXlVrBY+U1OhhmPjZsJVvtsU/XuOvnuBKuXMEj3XyNx7L6TiQ/rmpL2gD1jnksmTJ6d7nSJFiui9994zzs20YcOG1POQcxvHzJs3z14aoMDnUuxcPRhp3hZpU0yNH/1YB+xmgCvWcIRTp041HEPps2zZMruVe1Zxz/mcz4NmAHzjuD7vEJnm/OIqJbp9pr3ZN4EikA4FPgAAAHjl0KFDCgkJMV7QOGbgwIF2C+Q9F7X8xaaqVCTMeGxYiaj/tH7cf91eHoHnqta92dJF771Q1Rv6i474cHjOFStWpLtxW6JECc2dOzf1RrHJyZMn1a5duzRtnDN69OjUuWYACwU+V07px/6VjNsiXQrcrc9O280AF86ePavOnTubjyGHdOzYUadOnbJbuTd9+vR07ZlvFYBPnJyhzoXSnl/MKa6H5kbLxyPUA25R4AMAAIBXTDdQTJk9e7bdAnlLsg58N0jNS7mehD5/5fs0ZgUzUwSy+I0f6uFargr9xdVv0VV7yaw7ceKE2rdvn+Y1rJ57c+bMcVncs8TExKTeHHZs5xzr363lAAsFPldSFLt8mKoatkX6lFGvL/fKtwP0ItgsX7489TxuPoZuZ+LEiW7P87dcvnxZ/fv3T9O2VatWqcM1A0DWxOu/T/p69B0YWu1xzb9oNwNyCAU+AAAAeOWhhx4yXtA4pmjRotw0z6PO//mKHqxTyHhcpCakih77ge4dAS15rz5oX9S8f62UflDf+mgaLmtoTusGr/NrWMN1ZjQE8N69e9WkSZN0bR1j/bu1nK9Y80Rt2rRJK1euJF7EmosrOTn3x7OiwOdGwhqNqh9h3B7OCW/6qjbTfQEuWL2mrd7TpmPHMVavbWuoZU+Y5vMbN26ckpI4EAFkUeImvdEif5rzizlReuDDbWLmT+Q0CnwAAADw2JkzZzx64rp37952C+QlCYd/04gmBY3HxM2U0YPT9zNsTUCL1/p3H1Idl8MUhavhMz/psI92snXTtl69emleo0ePHoqOzriCaLrh6xxr3Tt37rRbZI01D+Dw4cONr0Pcx/pemTJlSq7P20qBz51EHfj+cVUxbI90CblD7+y3mwFODh8+rJYtW5qPHYf06dNHFy961hVm2rRpadpa5xSrlyAAZFXS1rd1V1ja85MxxTtqho8ecAO8QYEPAAAAHvv+++/NFzRO+eKLL+wWyDMurtM795cyHg83U1Stxi7SKSadD2ApOrv2PfWs4npuxXz5SujxRb55dtnqDffCCy+kWb9103bp0qX2Eu4tWLAgTVtTfNmDb926dR49AEHMadasmQ4cOGBvzdxBgS8DcYs1qFLGc/Dmy1dMHd7ZIAZihok1hLv5uEmbGTNm2C3ci42NVa9evdK0tf5/678DQNac15Jx7VTK4fxiTgm1Gv2bztitgJxEgQ8AAAAeGzBggOGCJm1CQkJSn85GHpJySj8/WVthhuPhZvKr7hPfaWecvTwCUlL0Ao1q4mb4VStRXTXrrN0gi6yedc6994YOHar4+IwLiNawbNbwbI5tTfHlHE0U+LIWf5gviwJfRhK09aPeqhJi3i5pUu5BzeJOJ5xY52/rPG48ZhziTe/q+fPnpzv3Mg80AJ+I/UkPlfPgwZbCbfTBQbsNkMMo8AEAAMAj1vBz5cqVM1/UOMS68Ym85IIWDauncMOxcDMFVO2+kfr5lL04AlPKfn3eraxh/zqmoJoMm6tDPhieMyUlRVOnTk2zfm+GXDt16pQ6duyYpr0p/fv31+XLl+1WWXPp0iUNHjzY+DrEfax9O2fOnNT9npso8Hng8h8aWMG8XdKmsDp/eVzX7WaAxfq7sf5+zMfM7YwcOTK1F3dGrPOu88NnDz74YOqQ8gCQNQk6+F1flXM4v5hTQi2GzBGjcyK3UOADAACAR3777TfDBU36vP/++3YLBL8EbZrUQzULmI+FfPlCFNWkrz7dmbvzaiGrjmtO/+oKMe5jx5TRgIVX7DZZYyrQeVOMW7ZsWZq2rmLN2+RL1g3pTZs2aeXKlcSLWENz5nZxz0KBzxPXteWDvqruwXxEBe9+Qxup8MGBpwW+mTNn2i3co/cegGxz7S8Na5A/zfnFmIKtNXV/7v+GQd5FgQ8AAAAeGTZsmPmixinbt2+3WyC4JevM6lfUPL/5OEhNSFU98QtP0Qe20/r9hbYq48mQfEW6aO4Fu1kWmQp0ns7HZBXZrN4fzu2dU6tWLW3bts1uBVDg89jlhRpU3rxt0qaqxvAnBgeeFPisgp015HFGTp8+ra5du6Zp27dvX+beA+AT8csGqITD+cWcUmoxeK58NDo9kCkU+AAAAOCRmjVrGi5q0qZ169b20gh2l7Z+qj5VChiPg5spr75fH1SCvTwCUbT+eOlelfSkuJevsJo+870OJdtNsyAhIUGjR49Os/4mTZpo79699hLuWXOAtmzZMk17UwYNGpQ69DBwCwU+TyVq29Q+qhFh3j63k18NhszVYR+cFxAcrOKbc1HOOZ6c7xMTEzVx4sQ07apUqaK1a9faSwBAFiTv1fQHS6U5xxhT4B5N28+XHHIXBT4AAABkyNPh7t544w27BYJZyoWVerVNGYUajoGbKanO722SbwZrRO6I1sKx9yjKo+KelXIa8Pslu23WnDx5Uu3atUuzfm+KcVZPP8e2rjJv3jy7BXATBT4vXFmoAWXM28cxIVGN9fouuw3yvKtXr2r48OHGY+VWMvr7sobztebsdB6ac/LkyamFPwDIqoR/xqqhw/nFnJJqMfhXXbTbALmFAh8AAAAyNGbMGMNFTfr8+++/dgsEr+Oa/kAlhRn2/80UV9MBn+mwvTQCUMpx/Ta6pYp4XNy7kcgu+slHFV1raDbnG7fTp0+3/9U9qwhoFQMd25pi9fCzevoBjijweSNFR74bqjuLmrfR7YSo5uAf6MWH/8noIQxr/tWYmBh76bSSk5P1/fffp/uO6NWrl8s2AOCVpL36olfZNOcYYyI76Ztouw2QiyjwAQAAIEPWcEnGCxuHNG7c2F4aweucfhvSUPkN+/9mCqv2A69oDaMeBq5rmzWlSznDvnWXorpz6EyfDM9p2blzp+rVq/e/9Xs6H5Nl8+bNKl++vMN7M2fcuHFKSkqyWwE3UeDzUvI+fdatsHEbOSasdFO9Si8+2JzP8c6xzuEbNmywl77NKuCNHTs2XXHPemBj9+7d9lIAkDUJa8eonsM5xpjwquo2Yb2u222A3ESBDwAAAG5ZvfKMFzZOefHFF+0WCE7x2jStq8oY9v3NFFCZhg/r6wMUTQJTks6vnaq+9dPeOPUs5TXgt3NKsdeUVdYQa1ahbuXKlamx/m9Phl2zhm2bOnWq4f2ljXVzePny5XYr4DYKfN67svk9dSph3k6OqTroJx3l6wE3WA9XTJkyxXic3Mqjjz6aOg+f9XdmFe+mTZumOnXqpFvOmndv1apV9poBIIuS9mrGwxXTnWvSpUhfLbpmtwFyGQU+AAAAuGXNq2e8sHHK0qVL7RYIPkk6NvdhlQ4NMe77fPnCFJ6/ukavu2ovj4CSclb/THtYtUvmN+xbD1Kwq37zg11/9uxZde7c2fweHWIN5RYbG2u3Am6jwJcZKdr0XCtVLGDeVrdSoEILjd9hN0GeFx0drR49ehiPFU9jFfesuVSthzsAwBcS/h6tWobzTZoUaqExS87YLYDcR4EPAAAAbrVu3dp8ceOQGjVq2EsjGMVtnqwOlYsq3LDvb6aSnvjttM96cCHnJOydq+falFFoaIhCjPs2o0Sp+ZBvdMgPdr7VK8956DZTrF5+3BCGiacFvlatWuno0aN2K+jiEj1R1rytHFPuoS+0K8FugzzP+hvq2rWr8VjJKNbQ8WvXruVcDsB3kvboq0eruv89HF5ad/T9TvwCgD+hwAcAAACXtm/fbr64ccozzzxjt0DQif1dT7WooAKG/X4zpdXh9bVilJoAk3hQv77+oBpWKJLJwt6tVNSAX04rt0feS0hI0OjRow3vL21q1aqlbdu22a2AtDwt8FnFBWv4QNwWu2Ss2kSZt9etFChVW31/Om+3AKTz588b59VzFWs5a3lrPj4A8J0URX9yZ8a/iQt306xoxpuGf6HABwAAAJfef/9988WNU3777Te7BYJK7FK9dH81FTTs85uJ0l0jlirOXhwBIPm01k4fpo51olQgItywT71MwR763Q965Bw+fFgtW7Y0v0eHDBo0SHFxHLEwo8CXFbFaNLy5ykWYt9mtlGz3qpZfsJsAN1i98Kx59qyHNKxhN03HjTX/3sSJE3XkyBF67QHwvQu/6um7SxvPP/9LgYZ6avZxuwHgPyjwAQAAwCVrniHjBY5DypUrxw3zoHRKPw5vqkjDPr+ZSNXq9qF2JNqLw79dP6R/fpyigc1LqXBkQcP+zEwi1WjgNzpsv0Rumj17tuH9pY+1HOAKBb6sSTm3TM9UM28zx1Qa8a8YqRMmycnJqXOkWg9trFy5MvV/L168SFEPQDa6on/G1HPfey+0uBr0+17HORXBD1Hg87HkhCs6f/aMTp86qZMn83JO69zFOIZqAgAggB08eFAhISHmixyHDBgwwG6B4HFJ/068V0UM+/tmwlSs1tOaH5NsLw9/lXR2i+ZPe1ZdG5dVyWKFDfsyK6mmwfNO5PrwnNYDBlbPPPN7vB2rh591sxhwhQJf1l1a87ruLWbebrdSuEE/fXrIbgAAQC66un6iutQtZvy++l/KDtTCc1T34J8o8GVBSmK8Yk/u16blP2v61Lf0yvND9OBdtVSqRAmVyPMprWqNWqvLC99qQwxjEwMA3Pvjjz/s/wv+5PPPPzdf4Djl+++/t1sgOCRp3yedVMywr28mVMXqPqGZ++Lt5eF3rp3Szr9maHSnRqpdtYJKFStg2I8+SGRvLfKDbjjWnHrW3HrG9+gQa/g3a64+wBUKfL5xbHo3VctgqM6yfb/VEZ4RAQDkpqv/6aPeVdz33otoqGG/RdsNAP9Dgc9jKUq4cEzbV/2iz98Yrt73NlCFUlEqViRSkZE3EmI4ARDlCy2oUtU76t0N3AACAJht3bo19TvDmmQf/qVXr17pv9udUrRoUZ05c8ZugWBwZe0b6lCrmOsL3YLNNPqPUzd+HcOfJF86oe0r5mjaSwP1wJ11VLVchHn/+SxhqvHINzpmv35usYZtmzp1quH9pU2RIkW0fPlyuxVgRoHPR1Ji9duASm7mb82n8NJN9NBXB/guAQDkkkRteb2xwgzfUbdTUvdM3CaeR4E/o8CXgZTrlxW9a4k+f7GPurZrqcZlQg1/7MR9QlW+/Yv66RA9+QAAaZ07d06VKlVK/b748ccf7f8KfxAdHa3ChTMezq937952CwSDa/+9r153lFW4YV/fTGl1/WD7jcth5LbrF05qz7rFmv3RyxrU9X61a32H6lQJM+yz7EotDZl3LNeH5zx79qw6d+5seH9pYy1jLQu4Q4HPh87/rZcaub9/UrTpYE3fT4kPAJDzrm6YpJ613c1LHak6g+bqOLez4eco8Bml6Mrxrfrzu0ka0LK8Iox/5MS7RKjqwJ9Eh2YAgKO77rrrf98VTz31lP1f4Q9mzZrl8D3uOl988YXdAgHv9CK9+kBlhRr2880UUatX/2WO5RyXoPPRx3Vw62ot+P5zTR4/QgP7PqhObe9Sk0o5WdBzSpGHtcgPDgarV57VO8/4Hh1i9fKzevsB7lDg861rG99Rz2rhxm14K2V6fan9fLEAAHLShdWa1LWim6E5w1TmvglacZq+e/B/FPjSSFD0toV6u3c9RYaGuB9/l3if8n30zSFOjACAm/r06ZPme6Jq1ar2v8Af9O/fP83+MSU0NFSHDx+2WyCgJe7Rt4MbKL9hP99KiR6faAejrvte4kWdPXVEB/ft0eY1i1PnJP3h0zf10osvaOTTA/RI7x7qdn87tS4dYtwvuZWKD32jk/ZHyC1JSUkaN26c8f05pnz58tq8ebPdCnCNAp/vxS58RvXDzdvxZkJVY8QqHh4BAOSQy1o+qq6bhxpvXOdW7qH311+xlwf8GwU+S8pVHVs1XSO6t1Hj6mWMf9jEByl6p4bN2i2mtQcAjB492vhdsX79ensJ5KYrV66obNmyxn3kGGvIOwSDi/r79btVyLCPbydEzYa+rZkLl+vvf9doxZ9/6s90Warlf63VtoMndOzoER05EsQ5ekyH92zVujUrDNvBMUu1bNkf+mX2DH08ebLenfKuJk9+S6+//IJGDR+qoUOf1qB+vdWjayc1KBUROA8YhtbT078cyfXhOa0HDFq2bGl+jw4ZNGiQ4uLi7FaAaxT4ssfpXwardph5W1oJKddJry9nLmYAQHZL0dG5T6pVede9y8MqtNPoPxiDDoEjjxf4knRm00+aNKiNyoWa/6iJL1NMLUf8rBOMjAMAeZo1TJr5eyKf3nrrLXsp5KZff/3VuH+cM23aNLsFAleydn9wn4oZ9m9mE1owSlFRwZ+i+f2rR12Opng/LbpqH0K5aPbs2eb355QZM2bYLbKXNQToihUr1KZNG+P7IK7Tq1cvHTp0yN6SuYcCX3ZJ0bFveqpciHl7WinSfKR+PsKIPwCA7BO36UMNaFzU+D10M+XU4+tj9tJAYMizBb7rR5fo7R413A5DRHyfQl2/1D4mJwWAPOvHH380fj/cSrt27ewlkZueeeYZ4/5xzs6dO+0WCFQnvu+rxqUjjPuXEFcp3f3bXJ9b2+qRZ/XMM70/x1g9/HJqKGHrnFivXj3j+yAZxyryxcbG2lszd1Dgy0Yp0Vr2egeVMmzPWynxwKfad91eHgAAXzq7Qm/cV8r4/XMz5dTjs91KtBcHAkXeK/BdP6W1X7+s3k0zHnaK+DoFdfeENbpg7woAQN7yzz//KDIy0vD9kDbR0QyHkdtq1Khh3DeOsXqoILBdWjdNfWpS3CNeJqKhnvnpcK4Pz7lt2zbVqlXL/B4dMnLkSF27lvHsXomJianz9Fm9/T799FP9/fffio/3btLJtWvXGt8D8Sz+UDSjwJfNEo7oj/EdVNqwTW8mRFX6/6Qz9uIAAPhE8in98HhlN8Phl1PPz3YxrRQCUp4q8CUeX6qpg+5SWbcTPJNsS4m2em1ZtBihEwDynmPHjnl0I9aKNeQacs/SpUuN+8U5EydOtFsgECUd+10vtysVOHO+Ef9Jyce1yLu6l89ZQ2G6G+7ZMcuWLbNbuWcV98qXL5+m7YIFC+x/9YxV8LEKP47rIJ6nb9++9ODLCxIO6ffxHVTGsF1TU7CK2r24UsyaCQDwjfNaOLy+wk3fOakpr16f7VLGj4MB/imPFPjO6Z+PB+qOoqY/YpJjKdVL3x5lTH0AyGuSk5NTh940fjcYYg25htzz4osvGveLczZs2GC3QMCJ36WvB9ZhqHqSqRTvOuvG1VXuOnv2rDp37mx8f47p2LGjTp06Zbdyb/r06enar1692v5Xz9yag6958+bp1kXcxxqec//+/faWzD0U+HJIwkHNH3efyhm2bWoKNdPo+YcZJg0AkEVXtHpcCxUyfdekprwe+nSn/GBqaSDTgr7AF79vviYPvlfVCpj+iElOpkS/P5TLD/sCAHLB448/bvxecJWKFSvaLZEbGjdubNwvjmnWrJm9NALPVa0Z00gFDfuVkAxTsImGzT2U68NzLl++XEWKFDG/R4dYPY2toltGLl++rP79+6dp26pVKx09etReAnkFBb4clHBQv73RS3XDzNs4vFJnvfr7EYp8AIBMitf6yb1UJ9L8PZMvXwU99NlO7lUj4AVxgS9Rh+dPVJ8GRRl6yA9SqFZXjVvPT3MAyGteeukl4/dCRrHmMULOs+ZJNO0P57z88st2CwSWZO18v4OiDPuUEI9SfrAWX7EPp1ySkJCg0aNHm9+fQ6zhNj3taWyaz2/cuHFKSsrtUiZyGgW+HJYSp6M/Pa36LqZRCa/QSa8tPHHj2wsAAG8k6eD3T6tJIdP3S6giKzTSoK8p7iE4BGmB75o2T7xbBdL9AZNcSf7KemzmIebeA4A85qOPPjJ/L3iQCRMm2GtBTrK2u2l/OOevv/6yWyCQXPlnsrpXDDHuU0I8SdnH/1Au1/d0+PBhtWzZ0vj+HNOnTx9dvHjRbuXetGnT0rS1egdavQSR91Dgyw2JOjJvtFpWKmacHymi/COadZyHhQEAnru47kM9XLNguu+UfPkiVapqI41alNsDzgO+E3wFvsSD+vHZZiqd3/kPmORGohr30YSfeCIit6UkJ+r69eupTzwT4qtYx1RiMqV7mM2bN8/4veBpWrduba8JOckaks60PxxTt25de2kElhTteL296peJMO5XQjJMoRYasyTaPp5yz+zZs83vzykzZsywW7gXGxubOv+bY1vr/7f+O/IeCny5J37DW2pTpbSKhDht7/ByavH4z7pgLwcAgHuXNPOeaopKVxuIUu0OQ/T11tx+XA3wreAq8CXv1Wfdyjn98ZKcTv7CxVSidA11HPG5Vh6Ks3cOcsO1E+s0570pmjzpbY17dqAe6tpVXQnxSXqq/7CXNHHSZL373tdafYS/ddy2ceNGlSlTxvgd4U1OnDhhrxE5YevWrcb94JyRI0faLRBorm2ZoRe6tdC9nbqre3fX6db5PrVt1UJ3lCtgPAZI4CZ/mUZqfldrtbu/q3Hfu0yXNrqj0SvalMsjVsbHx2vo0KHGz+aYevXqaefOnXYr9+bPn59uPj+riIi8iQJf7ko8NF/j+3ZU85pRCg+JVJWWTdWwzn0a8u56XbOXAQDAvev6e2RP3VO/nAqlPjQSqsjyjfXA0+/pr9MM+ozgEzwFvuub9X6PSgo1/PjO3oQoJORmQkPDFBZ2O6HWfze2yfmEOLwvXyeiQCEVKVVVjdp01UOPPaln356pFbt44jW3nf51qNrXKq6wG8doaDg36Ej2JH9E2I3zXIiKVGutft8xFC+kM2fOqHnz5sbjxdt8++239lqRE6ZMmWLcD875448/7BYIVilJCbpy5oA2b9qYOocZCZ5s3LRZe46fU1yit9/YKUrxgy/5c+fOqVOnTsZzk2OsBxGuXcu4HHDp0iUNGDAgTdsHH3ww9bsMeRMFPj8QH6P9/23Wxg0btXHzbh0+fd3+BwAAPJRyVWd2b9HmjdZv4I3avGWfLlLbQ5AKigJf8rnVeqdbxZwppoUUUc37ntKYd77QT/MX6Pc/lmj93lO6eOmiYs+fS73ovJnzir1wSZfPHNCmpb/qp7mz9O1Hb+mlZ7qrbhHDerMhBdq+qJ/3Jyjp+lVduXjB6f35Kud14dIVxV27riSG6vMbCXtm6qmGFPVIziakcg+9v86zuW4QvB566CHj8ZGZPPbYY/ZakRM6duxo3A+OqVSpUuoQvQCQG6zrD08KfDNnzrRbuEfvPTijwAcAAIBAEvAFvuuphQzTpJm+SKjyFy6lynWa6O4OD2rYpJlavuWgoi8lKLNF/+TrVxS9d53++Hy8BnRoouplihgnkvZFoh7+hXHq86RTmtWnkt/0HiV5K4VavK6tPBWVZ40ePdp4XGQ2ZcuWtdeM7HbgwAHjPnDO4MGD7RYAkPM8KfBZBbt169bZLVw7ffp06rDjjm379u3L3Ht5HAU+AAAABJLALvCd+Vb9GhU1/uDOesJUqmlfvTzjLx24kGi/oO9d3j1fb3Wrkk1FvlqawDVH3nN5nnpFmo4HQnIiNTThsH0sIk+ZNm2a4XjIelatWmW/ArLTp59+atz+zvnxxx/tFgCQ86zim3NRzjmeFF4SExM1ceLENO2qVKmitWvX2ksgL7KGdX3xxRfTHBeu0qhRI+3YscNuCQAAAOSOwC3wXd+hj7qUNP7YzlIiauqeh1/QBwt26WKOjTh5XafWzdKrfZqqlOk9ZTqRuvuVleIZ1Dzm6hL1L2E6HgjJgRRur1mM0pnnzJs3z3w8+CCvvPKK/SrITj169DBuf8eUKFGCni0ActXVq1c1fPhw4znqVqweflZPP1dSUlI0Z86cdENzTp48ObXwh7wnOTlZmzZtUrdu3dIcExmlTp06+uabb/huBAAAQK4JzAJf8l593r2c8Ud2phNaQMVrPqjXftun87k1h/OVXfppzH2qEGZ4f5lNuR76it40ecwhfdIuv/l4ICRbU0QNHp6uI/aRiLxh48aNKlkyGx64sdOyZUv7lZBdTp06pUKFChm3v2MeeeQRuwUA5J4ZM2YYz1G3Ys0nGhMTYy+dllXI+f7779MV93r16uWyDQKLNU/s3LlzUwu27vL222/r0UcfTT1erN6bjsdDZmIV+3r27Jk6xKfp9RzzwQcfpA4RCwAAAGRV4BX4EjdrSveKvp1fLLyoGg/8VOv8YsK6E/phQBOVCDW8z0ylgDpOP2avG3nF6fnD1SDcdDwQko2JuFtT9ibZRyHygjNnzqhp06bm48GHOXKEsnF2+u6774zb3Tlff/213QIAcs/OnTtVr14943nKSvny5bVhwwZ76dusAt7YsWPTFfesB0l2795tL4VAFx8fr6FDh6bZx/4W5u8DAACArwRYge+8/ni6hk+Le/lrdder8/boUo4Nx+mBlGgtfrmNogzvNzMp0+c7HbdXjbzj9K/D1LJEiPGYIMSnCYlU1XsHa/K/l+2jD3mF1ePBeEz4OF999ZX9isgO/fr1M253xxQoUEAnTpywWwBA7klKStKUKVOM56pbsXpmWQUUa6hOq3hnzRNr9bByXs7qucVcr8GFAh8AAADykgAq8F3RmvGdVNlnvZLCVKHtcH3xb4yS7VfwKxfWaFKPago3vnfvElbjMc3YlWCvGHlHiuJPbNaCLz/R+2+/rtdee40Q3+ftqfr06z+0O+cmLYWfeO6554zfOdmRhx9+2H5V+NrFixdVqlQp43Z3TPfu3e0WAJD7oqOjPZo71F2s4p41h6w1Jx+CBwU+AAAA5CUBU+C7NK+Xihp+HGcuYar+8Cda5+dzYcctHqQyxvfvZQrW0oNvbxED5wEAfMHqCWH8vsmmlChRwn5l+NrPP/9s3ObO+fjjj+0WAOAfjh49qq5duxrPWRnFKrCsXbuW4l4QosAHAACAvCQgCnxXN0/Rg3UijT+OvU+oqvabpaP2uv3bAU1tVczwGTKRKuNvrA0AgKyxejsYv2eyOcuWLbPfAXxpyJAhxu3tHG5EAvBH58+fN86r5yrWctby1nx8CE6OBT5rnuD777/fmDFjxmjy5Mk+z5tvvqmePXsaX7NNmzapxyAFPgAAAPiK/xf4rv6nad3KpLs4y1xCVPXx73QwgLqynf1jrNqW9sE8amH36ad4e6UAAGTCxo0bVayYjx488TIvvfSS/S7gK4mJialD1Jm2t2M6dOhgtwAA/2P1wrPm2Rs9erTLc5o1/97EiRN15MgReu0BAAAACBp+XuBL0sax7VQpIv1FmvcJVbmO4/R3oE1Fl7RL791byPB5vExoQ41bd91eKQAA3jlz5owaNWpk/o7JgTRr1sx+J/CVRYsWGbe1c6weCQAQCJKTkxUbG6vDhw9r5cqVqf9rzTVKUQ8AAABAMPLrAl/82td0V0HzzSZvk7/OYM05EogXdgn6s38J42fyKiGV1fezbaITHwAgM7p3727+fsnBHDjAYNO+9Nxzzxm3s3P+++8/uwUAAAAAAAD8hd8W+FL2faIupc03mrxNWMX7NW7BCQXqc5vHPmiuEMPn8jZlenymnYHWgxEAkOueffZZ4/eKKRMmTDD+d1/k888/t98RfKFevXrG7eyYli1b2ksDAAAAAADAn/hpgS9aX7WLMN5o8jrhxdTi1TW6Yq85ECVtHK86ps/mbYo9pp9O2SsFAMAD7733nvk7xZAePXpo7dq1xn/zRR566CH7XSGrVq1aZdzGznn11VftFgAAAAAAAPAnflngu7jsVXXwSe+9MFXpOUX/XLZXHKBSDn6h+30xD2GBB/TVYXulAABk4KeffjJ/nxhi9Qa7pWLFisZlspqiRYsyj5KPjB8/3riNnfP333/bLQAAAAAAAOBP/K/Al7JDk1pGGm8yeZ0CbfTe7iC4EXj+L71Q2fD5vE4FDVvFGJ0AgIytX79ehQoVMnyXpI+13L59++yW0qBBg4zL+SKLFy+2XwVZ0bx5c+P2dUzDhg3tpQEAAAAAAOBv/KzAd1XbpnZUMcNNJq8TXlYtnlqhoChnXT+iOZ3ymz+nl6n3/ml7pQAAmEVHR3s0P9ut/Pjjj3bLm2bPnm1czhd5/vnn7VdBZm3cuNG4bZ3DtgYAAAAAAPBfflXgS9o2WR2qe9ZbIMNUGaAfTgbJMF4Jh31U4AtR80+i7ZUCAJDe+fPn1blzZ8N3iDmvv/663fI2q0BoWtYXadSokf0qyKy3337buG2ds2TJErsFAAAAAAAA/I0fFfgu6c9naynUcIPJ+4SoztiNSrLXHPCuHfJRgS9Ud39OgQ8AYGb1vKtfv77h+8OcgQMH2i3Ta9u2rbGNL7Jnzx77VZAZnuyb6tWrM98hAAAAAACAH/ObAt+1/6aqS2nzTSbvEqISzQdp9hl7xcGAAh8AIBvt2rVLjz32mOF7w3WsIpE7b731lrGdL/LRRx/ZrwJv7d6927hNnTN06FC7BQAAAAAAAPyRnxT4ojX3kZLGG0zep4jav7dNV+01B4XrvhqikwIfACCt33//XSVKlDB8Z7hO1apVtXPnTnsNZuvXrze29UW6d+9uvwq89cEHHxi3qXPmzZtntwAAAAAAAIA/8osCX8q+j9WpqPkGk9eJekhzztorDhaXN+rt+obP6nVCddfHJ+yVAgDyurVr1yoqKsrwfeE+CxcutNfgnlUINLXPagoVKqTr16/brwJvdOnSxbhNHVOmTBldvnzZbgEAAAAAAAB/5AcFvlP6bXgDhRtuMHmdAtX0wCsblGivOWgcm62HIg2f1+uEqsXUw/ZKAQB5WUxMjOrUqWP4rnCfzz//3F5Dxp566injOnwRq+chvHP06FGFhoYat6dj+vfvb7dAoJg8eTIhhBBCCCGEEELsXL0aVGM8upTrBb7ETa+rWaj5BpO3Cak6UHNPJNtrDh7Jez5R+3DzZ/Yuobrrk1P2WgEAedmECRMM3xPu88orr9itPfPjjz8a1+OLjBw50n4VeOrLL780bkvnzJo1y26BQHH//fcb9yUhhBBCCCGEEJIXQ4EvR1zXuvGNFGrYAZlJ+SHLg2vuPVvCunGqZ/i83oc5+AAAtzVr1szwXWHOwIED7VaeO3/+vHFdvki9evXsV4Gn+vTpY9yWjilcuLCio/mtEGgo8BFCCCGEEEIIIbdDgS8nXFilcS0KGHeA9ymjwauCbnDOVFcWPKrixs/sbSjwAQBu27dvn5o2bWr4vkibNm3aKD4+3m7lnY4dOxrX6Yvs2LHDfhVk5OzZsypatKhxOzqmV69edgsEEgp8hBBCCCGEEELI7VDgywGHp/dT42LmHeBtCjQZoT/O2ysOMmc/ucP4mb0PBT4AQFpHjhzR3XffbfjOuJly5cqlFgIzyxr33LReX2Tq1Kn2qyAjc+bMMW5D53gzxyL8BwU+QgghhBBCCCHkdijwZbv9mtLcV733iun+D3cpwV5zcEnRfy9UMXzmzCTk/9u78z+f6v//439Bs5hhBoPGvmQXIltEZC8qspUlFSkJIclSioqUokgiy9uWLW/Zo5KlkH0J2cnOmO3+NT7P9/c975fnjHnN68y85rxet+vlcv/h/e48H8/neV3mcjnn8nw456ju5LOmLgAA/+fUqVNq0qSJ5bpxn9auXWuOypzt27db6zqR1q1bm1lwLymvWLX9hqkTEhKiI0eOmBFwExp8hBBCCCGEEELIf0ODL6sd+Eh1w+w/vveppjF/mboB54RmdihsOefMJET1p14wdQEA+K8LFy7caZilvm5Mnz7d/FfflC9f/n/qOpXw8PBMvzo0mKT8RilPYtp+w9Rp2bKlGQG3ocFHCCGEEEIIIYT8NzT4stRV/TbuSRWx/PCZSXTlEQrYr/Dc/F3jWhWynrf3KanX1seZwgAA/K+rV6/q6aefvnPNePvtt83/67s+ffp4XI+cy6JFi8wsSMuSJUusv51nxo8fb0bAbXbt2kUIIYQQQgghhBATGnxZ6doqvVY51Lq55HWiH1Snj3YowZQONHEH/6W+tfPaz93bhNTR2F1JpjIAAHe7deuWOnbsaP6XM1KacNbrkgNJaR4ifa+99pr1t/NMyg0wAAAAAAAA3MEvDb7kbQNU2rKxlJmEVnxJ804km8qBJlknvn9TDQvaz93rRLXV9KOmNAAA2eTy5ct3XqdpvTb5mAoVKphZkJZy5cpZf7vUadiwoTkaAAAAAAAAbuCXBt/+sQ8r1LK5lJlEPvaZDpm6geeGNr1d1Xre3idUpZ4epy3XTWkAALKR5/f9nMwff/xhZoGn1atXW38zz7z33ntmBAAAAAAAANwg+xt8iX/pm/aFrZtLmUm5IdsVuC+d/Etjq9vP2+uEFNeTYzbovKkMAEB2+uSTT+zXJwfy0UcfmVngafDgwdbfzDObN282IwAAAAAAAOAG2d7gi9s1Sc+WCrFuLnmf+9VtZQB/LDHpRz0ZZjvvTCS0gnovOq1AfZkpACBn27lzp/365ECaN29uZoGnhx56yPqbpU7NmjXN0QAAAAAAAHCLbG7wJevgpMcVYdlcykwiKnfVt8dN6UC0/0PVCrWfu9cJr6sxuwL3WUcAQM5XuXJl+zXKgVy5csXMgv/45ZdfrL+VZ9566y0zAgAAAAAAAG6RzQ2+y5rbOsK6ueR9olRnwGIdD9ieVaKOzeqm0iG2c89EIlpp3lVTGgAAP3j99dft1ygHMm/ePDML/mPUqFHW38oza9euNSMAAAAAAADgFtnc4PtT/QvbN5e8Twn1WHzB1A1AiYc1q2dFhVnPPRMp0FvbTWkAAPxh6dKl9muUA3n55ZfNLPiP+vXrW3+r1KlYsaI5GgAAAAAAAG6SvQ2+q0vUuaB9g8n7VNP7B03dQHR6rjrkt513ZhKp8h0X6KIpDQCAP1y7dk25c+e2XKd8T5kyZcwsSLFjxw7r7+SZvn37mhEAAAAAAABwk2xt8CXt+VQt8tk3mLxO3vZafN0UDkAJq7oor+28M5GQ2Mf05sKTpjIAAP7Ttm1b67XKiWzdutXMgo8//tj6G3km5alKAAAAAAAAuE82NvgSdXr5QNWJsm8weZvQ2mO1z1QORH+/W9p63plJZJ2hWn/ZFAYAwI8mTpxovVY5kffff9/MgubNm1t/o9QpUaKE4uLizAgAAAAAAAC4STY2+K5o++TnVCnCvsnkXWL1+Ds/6ZqpHHjOaGbbfJbzzlwKPrdMAfywIwDARfbu3Wu9VjmRJk2amFmC26FDh6y/j2d69uxpRgAAAAAAAMBtsq/Bd2uHPmsebd1g8jYhxZ7UmI0XTOHAk3DwO71YOdx67t4nSs2/PWcqAwDgf9WrV7dcr5zJP//8Y2YJXpMmTbL+Np6ZO3euGQEAAAAAAAC3yb4G37n56hZj32DyNrkeHqw1V0zdgJOkPePbqESI/dy9S4jyV31GXx0zpQEAyAEGDBhguWY5k9mzZ5tZgtfTTz9t/W1SJyYmRhcuBO4/lgIAAAAAAAh02dfgO/0vxxp8US2+1F+mbOC5oK/rh1nP2/tEqd6gH3TaVEawOaft8z9Qj+aNVb/2Q3eemCHE8VQprzIlHlS3yVvEpz6RUStWrLBcs5zJCy+8YGYJTqdOnVJERIT1t0mdTp06mREAAAAAAABwo2xr8CXvHaM6jjyVdp/yPb9a8aZuwLm0QO3y2s/b+5TW6xsD9pdCui5o5cCHFW39uyDE+YREFVfNN5bolPkLBNITFxenvHnzWv+WfE2JEiXMLMFpxowZ1t/FM9OmTTMjAAAAAAAA4EbZ1uBL3PiyYi0bTJlJyWEHTdVAk6S/Z3dVKcs5ZypRz+qHOFMaQSRBf37aQvltfxOEZGki9ci7m3XD/CUC6WnXrp3lb8iZ/Prrr2aW4PPcc89Zf5PUyZUrl44fP25GAAAAAAAAwI2yrcEXt6KDQ08T5dWzCy+ZqgEmYbe+7FHdmd8ppIhavLtNCaY0gkjSNr1VwfI3QUh2pGhvrefBYWTA5MmT7X9DDmTUqFFmluBy+fJlFShQwPqbpM6TTz5pRgAAAAAAAMCtsq3Bd3NZO0VZNpm8T2UN+zUwH0tL3DlWj+a2nbP3CSnbUwtOJpnKCCo3lqtLfvvfBSFZnpC6mnTW/C0C6Thw4ID9b8iBPProo2aW4LJgwQLr7+GZiRMnmhEAAAAAAABwK/c1+PK318wjgdi4Sta+jxsol+2cM5EiL6zQdVMZQSZ+g/oUt/9dEJLlCWugKefN3yJwDw8//LD978iBnD0bfJ3mXr16WX8Lz+zbt8+MAAAAAAAAgFu5rMEXqSo9puqPa6ZoIEn4U+ObRFvO2fuEF39cY/cmm8IIPle0akB9xVj+NgjJ2oSrXMdp4steyKghQ4ZY/o6cyYwZM8wswSEhIUElS5a0/hap06RJEzMCAAAAAAAAbuayBt/9ajx0qY4G4Ifl/lk2WE1iQyzn7G0iVHPgCvGGvCB3fZsmtC2mEOvfCCFZk/yN3tHqC+ZvEMiAVatWWf+WnMjzzz9vZgkOK1assP4OnhkzZowZAQAAAAAAADfLvgbf0qeU27LR5F2Kqe0nWxR4D/Cd1bctYhVqPWcvE1ZHH+7j6T1ICQfnaMTzDVSmYKyKliyjfKGWvxdCfElIlEqXLKbChYqrTochmrLzpvnrAzIm5amzggUL2v++fEyRIkXMLMGhf//+1t/BM9u2bTMjAAAAAAAA4GbZ1+Bb0NT3BlZIRfVZHniPhyTvfE81nWi+hBRTy1FbFYAPOCKzkq/owMZ1WrViqRbNn6OZ336rbwlxJDM0e94iLflhldZt/FP/JJq/OcBLHTt2tF/THMjGjRvNLIGvUqVK1t8gderWrWuOBgAAAAAAgNtlW4MveedwPWjZbPIqYdU0YPVlUzFQnNLiAfWU13a+XqZgsw/0y1VTFgAAF5g6dar1muZE3nnnHTNLYNuwYYP1/D0TLL8HAAAAAABAMMi2Bp/OzFO3GPuGU4YTXlOD1gRWgy9512jVyW85V69TQi/MO2WqAgDgDocPH7Zc05xJvXr1zCyBbdiwYdbz98xPP/1kRgAAAAAAAMDtsq/Bd24BDb67XNSizvfbz9XLlHj2K+3l3ZwAABdKeXWk7drmRE6ePGlmCVy1atWynnvqPPjgg+ZoAAAAAAAABILsa/Al7NM3HYpYN50ynABr8MVt/0zPlgm1n6s3ie2shYH3aUIAQJDI6BNomcm0adPMLIFp69at1vP2zIABA8wIAAAAAAAABILsa/DpunZ+3V1VIuwbTxlKQDX4/tGCDiUVZjtPb5K3urpO2KtkUxUAALdZv369/RrnQDp16mRmCUwffPCB9bw98+9//9uMAAAAAAAAQCDIxgZfss79OESPRNs3njKUAGrwJe8YrqohlnP0KhEq022WjtHdAwC4WHJysgoXLmy5zvmeggULmlkCU6NGjaznnTplypRRYmKiGQEAAAAAAIBAkI0Nvtv+nqpWvjT4QqvqjVUB0OC7tkWfdKigCNs5epH7Gw3U4hN09wAA7vf8889br3VOZN26dWaWwLJ3717r+XqmV69eZgQAAAAAAAACRfY2+JI26/US9s2njKWMus/92xRzqwTt+byNYn19ei+8pob+dN3UBADA3aZPn26/3jmQIUOGmFkCy6effmo9X88sXLjQjAAAAAAAAECgyN4Gn65q4dNR1s2njKWAHhuxRudc/NBawq7J6lIu3HJuXiS0lNpN+FO8bAsAECiOHTtmv+Y5kFq1aplZAkvr1q2t55s6sbGxunLlihkBAAAAAACAQJHNDT7p7xkdVdyyAZWx5Falzp/oZ7e+pTNhq4Y/FGY5L2+SS5V7zdPfvJkTABBgGjRoYLnuOZOUBmIgyWhDNOXVpwAAAAAAAAg82d7gSz6zQoPq5LFuQmUkIcWe0Cd7kkw1N7msLR82V0HLOWU8eVSlyyfa9I8pCQBAABk5cqTl2udMvvrqKzNLYJg6dar1PD0zY8YMMwIAAAAAAACBJNsbfNINrXyxqHUTKmPJoyfnue8RvhMzn1VsZIjlfDKaMBWq/obWXjMFAQAIMBs3brRc/5xJ+/btzSyB4dlnn7WeZ+pERUXp1KlTZgQAAAAAAAACiR8afFLilkGqGGHfjMpI7n/pJ1d9f+7q1knqVjXzTy2mJPLBHpq267qpCABAYCpevLj1Ouhr8uXLZ2Zwv/Pnz99p3tnOM3WeeeYZMwIAAAAAAACBxi8NPiXu0rhOlZXbshmVkYRUfUfbXPKWzuSTS/VmvXzW88hYQpSvUisN+eG0qQgAQODq0aOH5VroTFatWmVmcbc5c+ZYz88zkydPNiMAAAAAAAAQaPzT4FOyzi58QWUsm1EZSlQtvTbv+O0qOVvykW/V+aECCrWdQwYTlreu3vnpqqkIAEBgmzVrlvV66EQGDhxoZnG37t27W8/PM4cOHTIjAAAAAAAAEGj81OBLcVSfN8pr3ZDKSCIafqQ/c/BTfHH75urNxkV8au5FVOioTzady/GNTAAAnHLixAnrNdGJVK9e3cziXjdu3FBsbKz1/FKnefPmZgQAAAAAAAACkR8bfNKlFYPUODbEujF1z4Q/pIFrLptKOUvSyWUa9Iivr+V8Qm/9cMpUBAAgeDz22GOWa6MzOXz4sJnFnZYsWWI9L8+MGzfOjAAAAAAAAEAg8muDTzqlaS1yWzemMpICdXtp7jlTKkdI1tn149SxegGFWNab0YTlra2hG3gtJwAgOI0ePdp6fXQiX3zxhZnFnV599VXreXlm586dZgQAAAAAAAACkZ8bfLcd+Upti9o3pzKSol3mKEc855Z8Vhs+fl6Plon2obmXSw+06K9vNp/ntZwAgKD1yy+/WK6RzqRt27ZmFnd64IEHrOeVOg0aNDBHAwAAAAAAIFD5v8GnZJ1ePlB1ouybVPdMeEk1G7RCfn2Q7+IWfdW3ucpl9hzuJEYP9/xCG0/Gm6IAAASv0qVLW66VvidPnjxmBvdZvXq19Zw8M2rUKDMCAAAAAAAAgSoHNPhSnNfyvvVVNNy+UXXvhKn6kJ90xVTLPok6tW6c2j8QZlmTN4lRze5TtZveHgAAd7z00kuW66UzWbFihZnFXQYNGmQ9H8/8+uuvZgQAAAAAAAACVQ5p8N12a4+mdCyZ+ddbhkap4ouzdSTJ1MtS8Tr7+yJ91LuVqsb62NwLK6fnpx9QoqkMAACkuXPn2q+bDqRfv35mFnepWrWq9XxSp0aNGuZoAAAAAAAABLKc0+C7LenoXL36eBnltmxYZSwhKtv9C22+aAo6LkGXDq3TtKHtVSHSNr8XCc2jwpWe1HsrT9DcAwDAw+nTp+3XTwdSpUoVM4t7ZPS7hIMHDzYjAAAAAAAAEMhyVIPvjlPz9VL5aIVZNq0ymtCYimo5cLo2n3GodZZ8RYc3TNfbzz6sIrlDrHN6lYgCKtt5kv64YeoDAIC7NGvWzH4ddSD79+83s7hDynf1bOfhmZTv9AEAAAAAACDw5bwG322JJ1ZoeLPCmX9d5+2EhEepYMlaatNnjKbOX6XNe/7SmUs3lJBsJklL4k1d+ee0ju/fprXfT9cHfZ9Vw2rlVLxglHUebxNdt4++WHdMcWY6AABgN3bsWOu11Il8+umnZhZ3qFevnvU8UqdChQrmaAAAAAAAAAS6HNngS5FwcJZeb1VJ+UPtm1heJzSfyjXqqv7vTtTMRYu1dPkK/fvf//7/+WHZEn0/Z7LGDO6lNrVLK3+4pUamk9JsrKTaL0/V1kv36jACAIAUW7ZssVxTnUnr1q3NLDnfjh07rOfgmddee82MAAAAAAAAQKDLsQ2+Oy5u0rh21RWby76R5VNCQhUa+t/48rRgugmNVb2en+iHfZdFaw8AAO+UK1fOfn31MeHh4UpISDCz5Gwff/yx9Rw8s2TJEjMCAAAAAAAAgS5nN/juuKzt03qrdrR9MyvHJndpPdJxiL789QKNPQAAMumVV16xX2cdyLJly8wsOdvjjz9uXX/qFCtWTDdu8HFfAAAAAACAYOGCBl+KZF3c9rVeqVdeRfLmsm5s5YzkVsGSD6p+l+GasemILrnjwQAAAHKsBQsWWK63zqRPnz5mlpzr0KFD1rV7pkePHmYEAAAAAAAAgoFLGnxGwklt/PJVNa0Qo1DL5pY/E5KnlOo/P0pzt50RfT0AAJxx/vx5hYWFWa+9vqZChQpmlpxr0qRJ1rV7Zs6cOWYEAAAAAAAAgoG7Gnz/kXxRf8x6Vy80Lq98IfaNrmxJSH5VfuINjZ//iw5fTjSLAwAATmrVqpX9OuxAdu/ebWbJmdq0aWNdd+rkz5//TiMUAAAAAAAAwcOdDT4j6fpJ7Vj+hd58tpnqVC6hPJZNL+eSWzHFyqvGoy30TNdX9e6UJfpl30ldjucLewAAZKXx48dbrsvOZNy4cWaWnOfUqVMZenqxQ4cOZgQAAAAAAACChasbfP+VoAt7V+nbDwfq+RZ1Val4jKKjopQnd25FRkZYN8PSTqjCc0Uod548ynO7RoFiZVWtfit17jNMk5dt1VGe1AMAIFtt377dcr12Js2bNzez5DwzZsywrtkzU6dONSMAAAAAAAAQLAKkwech4ZrO/31Af2z6t+ZPm6CRb3TXU4/VUNnYaOVJadxZkj+2lCrWaqHn+o/RpO+Wat1vO7TvyAme0AMAIAeoVKmStbnlRG7evGlmyVk6d+5sXW/qhIeH69ixY2YEAAAAAAAAgkVgNvj+R7KSkxKVEH9Dl84e19G/jujwoUM69J8cPqwjfx3VyXMXdfXGLSUmmWEAACDH6Nu3r7XB5US+//57M0vOcfny5Tvf1rOtN3WeeOIJMwIAAAAAAADBJAgafAAAwO1SmnC2BpcTefnll80sOceCBQusa/XMp59+akYAAAAAAAAgmNDgAwAAOd7FixcVGRlpbXL5mjJlyphZco4XX3zRulbP7Nmzx4wAAAAAAABAMKHBBwAAXKFNmzbWJpcT2bFjh5nF/xISElSsWDHrOlOncePGZgQAAAAAAACCDQ0+AADgCimvo7Q1upzI2LFjzSz+t2LFCusaPfPBBx+YEQAAAAAAAAg2NPgAAIArpDxlZ2t0OZEmTZqYWfyvX79+1jV6ZuvWrWYEAAAA/itZCbfidPPmTZM43YpPvP3/5hxJifG6Ffef9f3vOpPMMQAAAPdCgw8AALhGtWrVrM0uJ3L16lUzi3+VL1/eur7UqV27tjkaAAAAKU29+Ct/a8e6xZrx+Ti9/87r6tGundrdSVf1GTJan077l35Yv12Hz11TfHZ2+5ITdOvGVZ09tF0/rVqmf037VGPff1fD+nY36zPp+pqGjhqtMRO+1tylP2rD1oM6c/Wm4un4AQCANNDgAwAArtG/f39rw8uJzJ8/38ziPxs2bLCuzTNvv/22GQEAABDkruzUrJEvqGn5aOt9k2dCwvOrWocRmrxok/6OMzUcl6wbp//UxsVTNXbQC2pcNlphlrXcK2FRZdSwx2CN/26j/rqWkKOeQgQAAP5Hgw8AALjGsmXLrJsfTqRnz55mFv8ZOnSodW2eSWkEAgAABLXki9o5Z4halYmw3i9lJFEP99XUn0/rlinpu0Rd2LFEk4Z2UIUI+5yZTUiuYmrcb4rWHr58exYAAAAafAAAwEVSXqMZHZ2xf53tbUqUKGFm8Z8aNWpY15Y6VapUMUcDAAAEqfg9mta/ucpGh1jvl7xJSIGH1HXizzrr06swk3R+2zyNeamhCofa53EqEUVrq/PIRTqSYKYGAABBiwYfAABwlWeeeca62eFEtm3bZmbJflu3brWuyTNvvPGGGQEAABCE4vdq2nMPKNRyn5TpRBZV09E/6XwmmnzxZ3/R5JfrqlCIpW4WpkCdVzTnMF0+AACCGQ0+AADgKl988YV1k8OJjB492syS/VLmtq3JMz/88IMZAQAAEGQSj2hOt9LONvdMQnIXVZP3f9XlDH/oLkGH5o3Us9UKK9JSLzuS98FO+no/L+wEACBY0eADAACusnv3busGhxN59NFHzSzZr0GDBtY1pU7p0qWVkMC/1AYAAMHopvZ++YzK5Auz3ifdl7+0arfpozHT52n5mjVas2a+vvqgo6pEWY5NI2FFGuiN5WfNfOm4tVtTuz2smHs+tZdb0TH3q0jxUnrw0bbq2nugRn02U98vX3l7fWu0esVSLfz6Y73dp7Na1y2v+/NFKbe1TtrJ92B7TTng0/tFAQCAS9HgAwAArlOzZk3rBocTuXjxopkl++zdu9e6Fs+8/PLLZgQAAECQOTZBLcvlsd4j3VegtnpO3amb5tDUzizsp3r5LGPSSHT9oVr9jxlscevg1+pQrtA9GnGRisoXq4c7v6vpq3fr7C0zOF3x+nv9F3qlSVlFW2umlRDFNh6sjXGmDAAACBo0+AAAgOsMHjzYsrnhTObMmWNmyT4TJkywrsUz8+fPNyMAAACCyM3tmtCmiPX+6L7YZhr5S3rdrSRtfjWNsWkk5oWNuvudCUk6tnSYWpQrlM4rOXPr/vKPqffEVTp8wwzz1q3tGtumkvJa66eVUD30zhZdMSUAAEBwoMEHAABcZ8WKFZaNDWfSrVs3M0v2adGihXUtqVOoUCFdunTJjAAAAAgWSTo+s6MKWu6P7stfRW0n7LQ04/7XySVv6tEYy/g0ElW9p6YdSf0xvttrmNVRhXOFK8xyfMpTdKGhhdRi7GodyWxjL5Wk0/PVo4RtnrQSqoIPttJXZ0wBAAAQFGjwAQAA17lx44YKFChg2dzwPUWKFDGzZI9jx45Z1+GZ5557zowAAAAIIueXaGDDQtb7o9A6H+tQBl5/eePgXPWqEmKtkVZKDPrTjE7Sse86qnBkWs293Crb6i3N23NFqVuCvonXrkntVcI6X1qJUIMP/xRv6gQAIHjQ4AMAAK7UoUMHy8aGM9m8ebOZJetNmTLFugbPfPvtt2YEAABAsEjW3hEVrfdG993fTKM2Z7CdFfezhtcNs9dJIwWf/kbH/jqiQzM6qHCeXGk09/KrwZDVyop3LCSf/1bNI2xzppVQlW4zWht4TycAAEGDBh8AAHClL7/80rKx4UxGjhxpZsl6zzzzjHUNqZM7d26dPHnSjAAAAAgS/6zXyEb5rfdHVQZt1E1z2D3Fb9H7jSKsddJK5AMtNeDpmiqaP9Le3AuvopfnHrzn60Ez77Am1A+9e950U15v7TLDAQBAwKPBBwAAXGnfvn2WTQ1nUq9ePTNL1jp//rwiIyOta0idp556yowAAAAIHmfndlQBy73RfYVa6qPf481RGRC/RR885l2DL91EVlOvWYeUaMpnjQta+pL91aRpJ7daz75oxgMAgEBHgw8AALhWnTp1LBsbzuTcuXNmlqwze/Zs69ye+eKLL8wIAACAYHFKc7sUs94bxbT/l84nmcMywskGX56H1Ou7rG7upbimHZMfUYhtDWkmlxqO22vGAwCAQEeDDwAAuNbQoUMtGxvOZObMmWaWrNO1a1fr3J45ePCgGQEAABAcEraNVNsKee6+Nwp/QM/O9/Iptfjf9F798LtreZu8D+vlGQezobmX4pr2zGquXLZ1pJlcqj1gmU6bCgAAILDR4AMAAK71448/WjY2nEmXLl3MLFnjxo0bKliwoHXu1GnWrJkZAQAAEDz2jKisUMu9UcHGw7X6vDkoo87+oP41vP2enWfyq/EHv8uLF4P6KDMNvkjV6jVN2y+bEgAAIKDR4AMAAK5169YtxcbGWjY3fE9K8y0rLV682DqvZz766CMzAgAAIEgkHdKkVvms90alXv9ZCeawjPrn5/FqX+buWhlPpKr0Xa3rpl72yEyD7z5FPvqRfj2fbGoAAIBARoMPAAC42nPPPWfd3HAimzZtMrM4r3fv3tY5PfPHH3+YEQAAAMEh7teRalsu0nJvFKkn514yR2VUknaPe0x57qqV8cQ8/qG2XzPlsk3mGnz3VXpXv57z5gOFAADArWjwAQAAV/v666/tmxsOZNiwYWYW55UqVco6Z+rUr1/fHA0AABA89o6spHDLvdF9BZ/WtCPePp12Ud81z3V3rQwmtORT+ujXq6ZWdrqhfZlo8BVo+Yk28wQfAABBgQYfAABwtYMHD1o3N5xIrVq1zCzOWr16tXU+z4wcOdKMAAAACBZnNevp/NZ7o1LdF+iEt+/njN+sgeXurpWx5FOjj/6Uf56Hu6KNI8pb1pReIlSr93TtuGJKAACAgEaDDwAAuF7Kk272TQ7fc+rUKTOLcwYMGGCdyzM///yzGQEAABAcEg7PU99aUZZ7ozA1/PK0OSrjru+eog4lPGtlJKEq1flr7b9pCmW7k5r5dB7LutJLhB55e428fYkpAABwJxp8AADA9YYPH27Z4HAm33zzjZnFOZUrV7bOlTrVq1c3RwMAAASPC4t6qGyI5f4orIoGbk40R2VUkg5920GFPWtlIJEVO2r8luumjj8c0OgH7WtLO7nVZNwu8YJOAACCAw0+AADgemvXrrVscDiTDh06mFmc8csvv1jn8cygQYPMCAAAgGCRpK0Dy1jvjYo2HaJlZ8xhGXZdi9vZnga8V8JV9e2t8vZtoI6KX63n89vWll4i1Xya9085AgAAd6LBBwAAXC8pKUnFihWzbHL4nnz58plZnJHRpw1XrVplRgAAAASJ5H36rJm9IVep70pdNIdl3EG9U/ruWvdKdN039L2f+2SJO8ereV77+tJOPj2/3j9fDAQAANmPBh8AAAgI3bt3t2xyOJP169ebWXxXu3Zt6xypU65cOXM0AABA8Lh1aKEG1M9ruT/Kq7b/8v7LcreOzlTHop617p0qI/7082su47T7m5f0UKR9fWkmVz2N3WtKAACAgEeDDwAABITp06fbNzocyJAhQ8wsvtmxY4e1vmf69OljRgAAAASPxJOrNKJJQY97o0iVb/G65p81B2VYkg5/101lbN/zSy+hD2nE7/5+Cu6UZnQop3Db+tJMqEq1GqaVF0wJAAAQ8GjwAQCAgPDXX39ZNjqcSfXq1c0svhk7dqy1vmcWL15sRgAAAASTBB2ZN1j9evdQjx491LVzB/V5f4bW7D6rRHNExl3V4k62pwHTT/En3tc6fzfJkn/Tq0Xs60s74ar55irR3wMAIHjQ4AMAAAGjUaNGls0OZ3L8+HEzS+Y99thj1tqpU7RoUV2/ft2MAAAAQOYc0KDC9vut9FKh3xpdMRX85sAnapjLvr60k0dPzv7HFAAAAMGABh8AAAgYo0aNsmx2OJMpU6aYWTLn0KFD1rqeSfmWIAAAAHwTf2KG2t9vv99KOyGq88VpU8Ff4rRnxguqFGpbX3qponcPmBIAACAo0OADAAABY8OGDZbNDmfyzDPPmFky5/PPP7fW9cysWbPMCAAAAGROog7P7aWqXj8F96BG/OHv7+8d17ROlZXbur60Eq4yLQdr5UVTAgAABAUafAAAIKCUKlXKsunhe/LkyWNmyJwnnnjCWjd18uXLp7Nnz5oRAAAAyJxL+r5rfuv9Vnop+eR7WuPvt1xe+FqPhtnXl3YiVXvwj+IuEgCA4EKDDwAABJSePXtaNj2cyZo1a8ws3jl16pS1nmeeffZZMwIAAACZt1ev5bffb6WdEFUduFb/JJsSfpGsC+sHq4bXr+eMVvvFfMMZAIBgQ4MPAAAElJkzZ1o2PZzJwIEDzSze+eabb6z1POPrd/4AAAAgJZyYrraZaPDVmXzOVPCXs1o8oLGKWNeXTkLraeIJUwIAAAQNGnwAACCgHD9+3L7x4UCqVKliZvFOhw4drPVSJzQ0VH/99ZcZAQAAgMxJ1JEFr6t2lP2eK+1U0rDtfv7+XtJG9SxoW1t6CVe5ThO145apAQAAggYNPgAAEHCaNm1q2fxwJkeOHDGzZMzly5cVHR1trZU6rVq1MiMAAACQef9ocbeC1vut9HJ/g9e14JQp4SdJ+8eoZoh9fWknWi2/Oqp4UwMAAAQPGnwAACDgvP/++5bND2cyadIkM0vGzJs3z1rHMxMmTDAjAAAAkHm79EqM/X4r7YSp2quLdDTBlPCLy9o4prWKWteXXqpq7FFTAgAABBUafAAAIOBs2rTJsvnhTNq0aWNmyZgePXpY63hm9+7dZgQAAAAyK/nMdLXKY7/fSjthajDxmKngJ4mb1f8B29rST+zj7+iXOFMDAAAEFRp8AAAgIJUtW9a6CeJrwsPDzQz3lpCQoMKFC1vrpE6jRo3MCAAAAGReoo5+3081I+z3XGmnhPr95t/v7yXvfVdVrWtLLzFqMX6nrpkaAAAguNDgAwAAAalXr16WTRBnsnLlSjNL+pYvX24d75nRo0ebEQAAAMi881rc497/uMozEVVe1LzTpoRfXNavH7ZSrGVt6aeGxh83JQAAQNChwQcAAALSnDlzLJsgzqRfv35mlvS99tpr1vGe2bJlixkBAACAzNuuVwra77fSTi499Op8Hfbn9/fiN6l/edva0k++BsP0W7ypAQAAgg4NPgAAEJBOnTql0NBQ62aIr6lQoYKZJX0ZeU1orVq1zNEAAADwyblv9Hgu+z1X2onU45P9+/295N0jVMW6tvRSSK0n/K6rpgYAAAg+NPgAAEDAatmypWUzxJkcOHDAzGK3bt066zjPDB061IwAAABA5iXq+NLXVT3Mfs+Vdkqq/xZ/fn/virZ+3FwFrGtLJyG19Yl/+5IAAMDPaPABAICANXbsWPuGiAP57LPPzCx2gwcPto7zTEojEAAAAL46p8UvlbTeb6WXkDLdNP+sKeEPKa/nrBRiXVt6iag1TNsSTQ0AABCUaPABAICAtXnzZuuGiBNp1aqVmcWuWrVq1nGpU7lyZXM0AAAAfJL8m16Jtd9zpZ3cqvnqXB3y4/f3kne8rUrWtaWXWD016U/dMDUAAEBwosEHAAACWqVKlSybIs4kMdH+z6a3bNliPd4z/fr1MyMAAADgk/NT1SDUfs+VdqLVaoo/33N5XhuGN1CUdW3pJPwxfXXKlAAAAEGLBh8AAAhoffr0sW+MOJDly5ebWf7Xu+++az3eM2mNBwAAgDcSdHRBb1UOsd9zpZ1SGrAt2dTwg2vL1b2UbV3pJ89j47TflAAAAMGLBh8AAAho8+bNs26MOJFXX33VzPK/HnnkEevxqVOyZEndunXLjAAAAEDmHdeMTsWt91zppmgXLfjHlPCDhJ9fVynbutJNKT333SHFmxoAACB40eADAAAB7ezZs4qIiLBsjvieBx54wMzyX7t377Ye65kXX3zRjAAAAIBP4laqa4z9nivtROvhPt/pgL++v5d0VPNeraHc1rWlk3wtNfO8qZEZSXG6dO6MTp44oRMnz+ni1Xj58RlGAADgAxp8AAAg4D3xxBP2DRIHsmfPHjPL/xk3bpz1OM+kPFkIAAAAB+wfrWqW+630U0BPfX3Uf82t45PVLNa2rvRSSHVfnKmTpoS3kv7+UR+80kkt61VUkZgYxRQqq1qtumvIhD9l/7I0AADIyWjwAQCAgPfxxx9bNkicyfjx480s/6dp06bW41KnYMGCunjxohkBAACAzLulQ7N7qJzlniv9lNZAP35/79z0poqwriu9VFL/dVdNBW+d1tIBdRRl+U5hnpIjdMwcBQAA3IMGHwAACHhbt269ayPDqTRr1szMIh09etR6jGc6d+5sRgAAAMA3x/Rd9/IKs9xzpZtCHbXosimR3W7t1KQumVhzTAf9EGdqeOvqIrUvk8tat3TfNbpuDgMAAO5Bgw8AAASFqlWrWjc0nEhc3P/ttHz55ZfW/+6Zb7755s7xAAAA8NHNlepewH7PlXbyqlbv6drvr+/v7R6p2gVDLOtKJyEl1GrEOl0xJbwVt663itvq5musD367ZI4CAABuQoMPAAAEhb59+969oeFQFi9efGeOtm3bWv976kRGRurEiRN3jgcAAICP9o5QBcs9V/oprPbTjvjpu3M3tfuD2t4/vRfRWJ8dyuyKz2jFkAbKZ6tb+k1t99+bSgEAgA9o8AEAgKCwcOHCuzc0HErv3r117tw5hYeHW/976qQ0AQEAAOCEeB37V3eVttxzpZ/SGuivrtblNXrr0fyWNd0j1cbqqCnhtUvz9XSFaGvdgl2W6Zo5DAAAuAsNPgAAEBQuXLigqKgo68aGrylZsqRmzpxp/W+e+fzzz82KAAAA4JPkk1ox5BHltdxzpZv8HbXET12t5K0DVMq2pvQSXlndv96rzL1RNFFnZz+jGFvd/A00aNlpcxwAAHAbGnwAACBoPPXUU3dvbDiULl26WP9/z+zfv9+sBgAAAD65tVEDStnvudJOftV6aar2++X9nPHaO7aOQq3rSie5n9Csf0wJb8Vv1wdtStnnLNlXP98yxwEAANehwQcAAILGhAkT7t7YcCgxMTHW/z91mjZtalYCAAAAn537UGUs91zpp6Q6Tz+gOFMiW13dok/bl7asKf2E1f9CJ00JbyX9MVI1LDXviyqrpoN+89N3CAEAgBNo8AEAgKDxxx9/3L25kY358MMPzUoAAADgm2RdXN5TJSz3XOmnrIYfMCWyWfL+CXokxLamdBJZRV0n71KmHrRLPq75rzyoXLa6hdtr2kEe3wMAwM1o8AEAgKBSo0aNuzc4sim///67WQUAAAB8knxGq4Y/rkKWe650U7i31vmprxW34HGF2daUXgq01sS9N0wF7yRuG67qtpq3k+eJbzL9VCAAAMgZaPABAICg0r9/f+smR1anXr16ZgUAAADw2c2fNOgB+31X2smnuq/P19+mRHY7MP7RTDT4+mmvGe+VpONa+MqD9vny1NPbay+ZAwEAgFvR4AMAAEFlyZIld29yZEOGDx9uVgAAAACfnRydie/vldWLC44r3pTIXonaPuYxRVjXlXbydflemWnFJWx9R9Us9VIS3Wa6TiSbAwEAgGvR4AMAAEHl8uXLiomJsW52ZGU2bdpkVgAAAABfXVvRU8Us91zp50G9f8gUyHYJ2jqmsSKt60ojYRX14uyDt0d6KW6rxrUvq1BbzYhaGrKGp/cAAAgENPgAAEDQadeu3d2bHVmYatWqmZkBAADgu2va8nFrxVruu9JN7Mt++/5eSoNvy3v1FW5bV1op1l5T9l014zMqWUc+fTSNJwWjVfn1X5VkjgQAAO5Ggw8AAASdiRMnWjY8si4DBw40MwMAAMBncdv0Ueeqirbcd6WdXHrojeU6a0r4w/GJ9e1P1aWViq9osZcLTtg2Ss3LR9vrlempBcdp7wEAECho8AEAgKCza9cu+6ZHFmXlypVmZgAAAPjs9FQ9HmW/70o7ldXvx3N+fXrt1upuirGuLY1U6asfLpjBGXF9k8a2LakQW63QMuo047g5EAAABAIafAAAICjVqlXr7o2PLEjZsmWVnJxsZgUAAICvkn59XSUs913pJs9TWujt2y6ddmq2ni8dYl+fLRVe0bKMNviSTmnJq1XSeAVotGqmPL3Iw3sAAAQUGnwAACAovfnmm5bND+fzyiuvmBkBAADguyQdmdJGBSz3XeklpvGH2uvvf3OVfFHr3yhvXZ81Rdpr2pF7d+WSL+/T7D41FWmrcV+oCrf+SJsv8A/OAAAINDT4AABAUFq+fLllA8T5LFq0yMwIAAAAnyUc0cIB9ZXfct+VZkLKquPn23TdlPCnpD+Gq1ZuyxptiXpIPb8+pLRbc3H6e+NUDXiiUhpP7oWqaJM39a+D8eZ4AAAQSGjwAQCAoHTt2jXdf//9lo0Q51K4cGFdvervd0EBAAAEkEur9Ga1MOu9V5oJq633/8wh76dMPqe1wxtl+Ft84RVe0vyTV3XrP12+5HjduHRGf/35k75+s63qli1gHXfffWEq/vhAzdkXZwYCAIBAQ4MPAAAErQ4dOlg2Q5xLt27dzEwAAABwxP7Rqmq570ovoaV6aX1Oeojt5Pfq37iIQixrtSWiegt1GzxSoz/8QKPe7qfubeuoUIj92P9LmEo0HajZNPcAAAhoNPgAAEDQmjRpkmVDxLl89913ZiYAAAA44reXMvz0252EFFOL4euV096pcGPjW6qRy7Jen5NX1Z8epO/23TIzAQCAQEWDDwAABK09e/ZYNkWcSXR0tM6cOWNmAgAAgCP2DlXZUPv9lzWFO2vRRTM2R0nU6eVvqm6UZc2ZTnG1HDxb288nmjkAAEAgo8EHAACCWr169SybI76nXbt2ZgYAAAA45sZ6DW5eUuGW+6+7kqequk7cqQQzNOdJ1sVfP1OXprVUPsKy/gynkMrWbKLXZ+/R5RzyqUEAAJD1aPABAICg9tZbb1k2SXzPl19+aWYAAACAk65vGKwaJfOl2+QLKVVHz/Sbp7/c8DDbzdPasfBddWxUU+Wj7edjTUhRlavRSM8N/VJrDl83xQAAQLCgwQcAAILaypUr7RsmPiQkJERHjhwxMwAAAMBpp1e/r7ZNGqhW4dBU92Ghin2ojhq0eENTfzqsK257mu3a3/p9+Vd6p3c3tX+ihZrUL6uY8HCFh4feub8MDYtS8ZqN1bz1U2rXoZvemrhIW47ltK8LAgCA7EKDDwAABLWbN2+qaNGiqTaGfE/Lli1NdQAAAGSZ+Ms6tnODFs2Zpe+++06z5v+ozXtP61ogvKby1mWd2LdXe/7crT17dun3Ldu0Y/de7d13WKcv3TIHAQCAYEaDDwAABL0uXbpYG3WZzfjx401lAAAAAAAAwHk0+AAAQNCbMmWKtVGX2ezatctUBgAAAAAAAJxHgw8AAAS9AwcOWBt1mUnDhg1NVQAAAAAAACBr0OADAAC4rUGDBtaGnbd57733TEUAAAAAAAAga9DgAwAAuG3YsGHWhp232bx5s6kIAAAAAAAAZA0afAAAALetXr3a2rDzJjVr1jTVAAAAAAAAgKxDgw8AAOC2hIQElShRwtq4y2jeeustUw0AAAAAAADIOjT4AAAAjK5du1obdxnN2rVrTSUAAAAAAAAg69DgAwAAMKZNm2Zt3GUkFStWNFUAAAAAAACArEWDDwAAwDh8+LC1eZeR9O3b11QBAAAAAAAAshYNPgAAgFQaNWpkbeDdK0uXLjUVAAAAAAAAgKxFgw8AACCVESNGWBt46aVEiRKKi4szFQAAAAAAAICsRYMPAAAglXXr1lmbeOmlZ8+eZjQAAAAAAACQ9WjwAQAApJKcnKwyZcpYG3lpZe7cuWY0AAAAAAAAkPVo8AEAAHh44YUXrI08W2JiYnThwgUzEgAAAAAAAMh6NPgAAAA8zJw509rMs6VTp05mFAAAAAAAAJA9aPABAAB4OH36tCIjI60NPc9MmzbNjAIAAAAAAACyBw0+AAAAiyeffNLa0EudXLly6fjx42YEAAAAAAAAkD1o8AEAAFhMnDjR2tRLnZQmIAAAAAAAAJDdaPABAABYHDlyxNrU+09q1aqlVatWmaMBAAAAAACA7EODDwAAIA0NGzb8/w292NhYNWnSRL1799aUKVPMEQAAAAAAAED2o8EHAAAAAAAAAAAAuAgNPgAAAAAAAAAAAMBFaPABAAAAAAAAAAAALkKDDwAAAAAAAAAAAHARGnwAAAAAAAAAAACAi9DgAwAAAAAAAAAAAFyEBh8AAAAAAAAAAADgIjT4AAAAAAAAAAAAABehwQcAAAAAAAAAAAC4CA0+AAAAAAAAAAAAwEVo8AEAAAAAAAAAAAAuQoMPAAAAAAAAAAAAcBEafAAAAAAAAAAAAICL0OADAAAAAAAAAAAAXIQGHwAAAAAAAAAAAOAiNPgAAAAAAAAAAAAAF6HBBwAAAAAAAAAAALgIDT4AAAAAAAAAAADARWjwAQAAAAAAAAAAAC5Cgw8AAAAAAAAAAABwERp8AAAAAAAAAAAAgIvQ4AMAAAAAAAAAAABchAYfAAAAAAAAAAAA4CI0+AAAAAAAAAAAAAAXocEHAAAAAAAAAAAAuAgNPgAAAAAAAAAAAMBFaPABAAAAAAAAAAAALkKDDwAAAAAAAAAAAHARGnwAAAAAAAAAAACAi9DgAwAAAAAAAAAAAFyEBh8AAAAAAAAAAADgIjT4AAAAAAAAAAAAABehwQcAAAAAAAAAAAC4CA0+AAAAAAAAAAAAwEVo8AEAAAAAAAAAAAAuQoMPAAAAAAAAAAAAcBEafAAAAAAAAAAAAICL0OADAAAAAAAAAAAAXIQGHwAAAAAAAAAAAOAiNPgAAAAAAAAAAAAAF6HBBwAAAAAAAAAAALgIDT4AAAAAAAAAAADARWjwAQAAAAAAAAAAAC5Cgw8AAAAAAAAAAABwDen/AS9KAiVNJr30AAAAAElFTkSuQmCC;" vertex="1" parent="1">
          <mxGeometry x="60" y="551.36" width="348.08" height="95.8" as="geometry" />
        </mxCell>
      </root>
    </mxGraphModel>
  </diagram>
</mxfile>
